<svg xmlns="http://www.w3.org/2000/svg" viewBox="0 0 128 128" width="300" height="300" version="1.1" xmlns:xlink="http://www.w3.org/1999/xlink" xmlns:svgjs="http://svgjs.dev/svgjs"><g width="100%" height="100%" transform="matrix(1,0,0,1,0,0)"><g id="Layer_32" data-name="Layer 32"><path d="M44.87,113.57a2.49,2.49,0,0,0,3.54,0l5.9-5.9a2.5,2.5,0,0,0,0-3.53l-.91-.91,3.4-2.81H77.15a12.22,12.22,0,0,0,9-4c3.82-4.18,10.19-11.15,14-15.38a6.25,6.25,0,0,0-9.09-8.57l-9,9.14a5.93,5.93,0,0,0-4.38-1.94H65.18C50.73,72.55,40.25,82.85,37,86.79l-.57-.58a2.52,2.52,0,0,0-3.54,0l-5.9,5.9a2.51,2.51,0,0,0,0,3.54ZM39.07,88.9c2.61-3.28,11.9-13.1,25.07-6.35a1.48,1.48,0,0,0,.68.16H77.74a2.92,2.92,0,0,1,0,5.83H61v3H77.74a5.92,5.92,0,0,0,5.91-5.91,5.41,5.41,0,0,0-.11-1.15l9.68-9.87A3.25,3.25,0,0,1,98,79.06c-3.83,4.23-10.19,11.2-14,15.37a9.24,9.24,0,0,1-6.79,3H56.26a1.43,1.43,0,0,0-.95.35l-4,3.33Zm-4.46-.22L48.93,103l1.19,1.19h0l1.71,1.72-5.19,5.19L29.42,93.88Zm-1-22H94a1.5,1.5,0,0,0,1.5-1.5V58a1.5,1.5,0,0,0-1.5-1.5H89.53V23a1.5,1.5,0,0,0-1.5-1.5H80.8A1.5,1.5,0,0,0,79.3,23V56.45H75.78V31a1.5,1.5,0,0,0-1.5-1.5H67.05a1.5,1.5,0,0,0-1.5,1.5V56.45H62V36.54a1.5,1.5,0,0,0-1.5-1.5H53.31a1.5,1.5,0,0,0-1.5,1.5V56.45H48.28v-12a1.5,1.5,0,0,0-1.5-1.5H39.56a1.5,1.5,0,0,0-1.5,1.5v12H33.61a1.5,1.5,0,0,0-1.5,1.5v7.22A1.5,1.5,0,0,0,33.61,66.67ZM82.3,24.51h4.23V56.45H82.3Zm-13.75,8h4.23V56.45H68.55ZM54.81,38H59V56.45H54.81ZM41.06,46h4.22V56.45H41.06Zm-6,13.47H92.48v4.22H35.11Zm3.58-22.62L66.18,17.29l-5.56-.61.33-3,9.47,1a1.51,1.51,0,0,1,1.06.63,1.47,1.47,0,0,1,.24,1.2l-2.13,9.29-2.92-.67,1.25-5.45L40.43,39.27Z" fill="#ffffff" fill-opacity="1" data-original-color="#000000ff" stroke="none" stroke-opacity="1"/></g></g></svg>