<svg id="Layer_1" enable-background="new 0 0 66 66" height="300" viewBox="0 0 66 66" width="300" xmlns="http://www.w3.org/2000/svg" version="1.1" xmlns:xlink="http://www.w3.org/1999/xlink" xmlns:svgjs="http://svgjs.dev/svgjs"><g width="100%" height="100%" transform="matrix(1,0,0,1,0,0)"><g><g><path d="m64.7 10.4-1.6-.3c-.2-.6-.4-1.1-.7-1.7l.9-1.3c.3-.4.2-.9-.1-1.3l-2.4-2.4c-.3-.4-.9-.4-1.3-.2l-1.3.9c-.5-.3-1.1-.5-1.7-.7l-.3-1.6c-.1-.5-.5-.8-1-.8h-3.4c-.5 0-.9.3-1 .8l-.3 1.6c-.6.2-1.1.4-1.7.7l-1.3-.9c-.4-.3-.9-.2-1.3.1l-2.4 2.4c-.3.3-.4.9-.1 1.3l.9 1.3c-.3.5-.5 1.1-.7 1.7l-1.6.3c-.5.1-.8.5-.8 1v3.4c0 .5.3.9.8 1l1.6.3c.2.6.4 1.1.7 1.7l-.9 1.3c-.3.4-.2.9.1 1.3l2.4 2.4c.3.3.9.4 1.3.1l1.3-.9c.5.3 1.1.5 1.7.7l.3 1.6c.1.5.5.8 1 .8h3.4c.5 0 .9-.3 1-.8l.3-1.6c.6-.2 1.1-.4 1.7-.7l1.3.9c.4.3.9.2 1.3-.1l2.4-2.4c.3-.3.4-.9.1-1.3l-.9-1.3c.3-.5.5-1.1.7-1.7l1.6-.3c.5-.1.8-.5.8-1v-3.4c0-.4-.3-.8-.8-.9zm-1.2 3.6-1.4.2c-.4.1-.7.4-.8.8-.2.8-.5 1.6-1 2.3-.2.3-.2.8 0 1.1l.8 1.2-1.3 1.2-1.2-.8c-.3-.2-.8-.2-1.1 0-.7.4-1.5.8-2.3.9-.4.1-.7.4-.8.8l-.1 1.3h-1.7l-.2-1.4c-.1-.4-.4-.7-.8-.8-.8-.2-1.6-.5-2.3-1-.3-.2-.8-.2-1.1 0l-1.2.9-1.2-1.3.8-1.2c.2-.3.2-.8 0-1.1-.4-.7-.8-1.5-.9-2.3-.1-.4-.4-.7-.8-.8l-1.4-.3v-1.7l1.4-.2c.4-.1.7-.4.8-.7.2-.8.5-1.6 1-2.3.2-.3.2-.8 0-1.1l-.8-1.2 1.2-1.2 1.2.8c.3.2.7.2 1.1 0 .7-.4 1.5-.8 2.3-.9.4-.1.7-.4.8-.8l.2-1.4h1.7l.2 1.4c.1.4.4.7.8.8.8.2 1.6.5 2.3 1 .3.2.8.2 1.1 0l1.2-.8 1.2 1.2-.8 1.2c-.2.3-.2.8 0 1.1.4.7.8 1.5.9 2.3.1.4.4.7.8.8l1.4.3z" fill="#ffffff" fill-opacity="1" data-original-color="#000000ff" stroke="none" stroke-opacity="1"/></g><g><path d="m53.5 6.4c-3.6 0-6.6 3-6.6 6.6s3 6.6 6.6 6.6 6.6-3 6.6-6.6-3-6.6-6.6-6.6zm0 11.2c-2.5 0-4.6-2.1-4.6-4.6s2.1-4.6 4.6-4.6 4.6 2.1 4.6 4.6-2.1 4.6-4.6 4.6z" fill="#ffffff" fill-opacity="1" data-original-color="#000000ff" stroke="none" stroke-opacity="1"/></g><g><path d="m44.7 26.1-3.7-.7c-.4-1.4-1-2.8-1.7-4.2l2.2-3.1c.3-.4.2-.9-.1-1.3l-4.7-4.7c-.3-.3-.9-.4-1.3-.1l-3.1 2.1c-1.3-.8-2.7-1.3-4.2-1.7l-.6-3.7c-.1-.5-.5-.8-1-.8h-6.7c-.5 0-.9.3-1 .8l-.7 3.7c-1.5.4-2.9.9-4.2 1.7l-3.1-2.1c-.4-.3-.9-.2-1.3.1l-4.8 4.7c-.3.3-.4.9-.1 1.3l2.2 2.9c-.8 1.3-1.4 2.7-1.8 4.2l-3.7.6c-.5.1-.8.5-.8 1v6.7c0 .5.3.9.8 1l3.7.6c.4 1.5 1 2.9 1.7 4.2l-2.2 3.1c-.3.4-.2.9.1 1.3l4.7 4.8c.3.3.9.4 1.3.1l2.2-1.5c.3-.2.4-.5.4-.8v-4.8c0-.9.2-1.8.5-2.6.1-.3.1-.7-.2-1-1.8-2.2-2.7-4.8-2.7-7.6 0-6.6 5.4-12.1 12.1-12.1s12.1 5.4 12.1 12.1c0 2.8-.9 5.4-2.7 7.6-.2.3-.3.7-.2 1 .3.8.5 1.7.5 2.6v5.1c0 .3.2.6.4.8l2 1.4c.2.1.4.2.6.2.3 0 .5-.1.7-.3l4.8-4.7c.3-.3.4-.9.1-1.3l-2.1-3.1c.8-1.3 1.4-2.7 1.8-4.2l3.7-.6c.5-.1.8-.5.8-1l.1-6.7c0-.5-.4-.9-.8-1zm-1.3 6.8-3.5.6c-.4.1-.7.4-.8.8-.4 1.7-1.1 3.3-2 4.8-.2.3-.2.8 0 1.1l2 2.9-3.6 3.5-.9-.6v-4.6c0-.9-.1-1.9-.4-2.8 1.8-2.4 2.8-5.3 2.8-8.4 0-7.8-6.3-14.1-14.1-14.1s-14.1 6.3-14.1 14.1c0 3.1 1 6 2.8 8.4-.3.9-.4 1.8-.4 2.8v4.2l-1.1.8-3.5-3.6 2.1-2.9c.2-.3.2-.8 0-1.1-.9-1.5-1.6-3.1-2-4.8-.1-.4-.4-.7-.8-.8l-3.5-.6v-5l3.6-.6c.4-.1.7-.4.8-.7.4-1.7 1.1-3.3 2-4.8.2-.3.2-.8 0-1.1l-2-2.9 3.6-3.5 2.9 2c.3.2.7.2 1.1 0 1.5-.9 3.1-1.6 4.8-1.9.4-.1.7-.4.8-.8l.7-3.5h5l.6 3.5c.1.4.4.7.8.8 1.7.4 3.3 1.1 4.8 2 .3.2.8.2 1.1 0l2.9-2 3.5 3.6-2 2.9c-.2.3-.2.8 0 1.1.9 1.5 1.6 3.2 2 4.8.1.4.4.7.8.8l3.5.7z" fill="#ffffff" fill-opacity="1" data-original-color="#000000ff" stroke="none" stroke-opacity="1"/></g><g><path d="m29.7 28.8c0-3.7-3-6.7-6.7-6.7s-6.7 3-6.7 6.7 3 6.7 6.7 6.7 6.7-3 6.7-6.7zm-11.5 0c0-2.6 2.1-4.7 4.7-4.7s4.7 2.1 4.7 4.7-2.1 4.7-4.7 4.7-4.7-2.1-4.7-4.7z" fill="#ffffff" fill-opacity="1" data-original-color="#000000ff" stroke="none" stroke-opacity="1"/></g><g><path d="m26.5 36.1h-7c-2.6 0-4.7 2.4-4.7 5.3v12.1c0 .6.4 1 1 1h2.1v8.1c0 1.3 1.1 2.4 2.4 2.4h5.5c1.3 0 2.4-1.1 2.4-2.4v-8.1h2.1c.6 0 1-.4 1-1v-12.1c-.1-2.9-2.2-5.3-4.8-5.3zm2.7 16.4h-1.1v-5.7c0-.6-.4-1-1-1s-1 .4-1 1v6.7 9.1c0 .2-.2.4-.4.4h-1.7v-9.1c0-.6-.4-1-1-1s-1 .4-1 1v9.1h-1.8c-.2 0-.4-.2-.4-.4v-15.8c0-.6-.4-1-1-1s-1 .4-1 1v5.7h-1.1v-11.1c0-1.8 1.2-3.3 2.7-3.3h7c1.5 0 2.7 1.5 2.7 3.3v11.1z" fill="#ffffff" fill-opacity="1" data-original-color="#000000ff" stroke="none" stroke-opacity="1"/></g></g></g></svg>