<svg clip-rule="evenodd" fill-rule="evenodd" stroke-linejoin="round" stroke-miterlimit="2" viewBox="0 0 510 510" xmlns="http://www.w3.org/2000/svg" width="300" height="300" version="1.1" xmlns:xlink="http://www.w3.org/1999/xlink" xmlns:svgjs="http://svgjs.dev/svgjs"><g width="100%" height="100%" transform="matrix(1,0,0,1,0,0)"><path d="m343.044 248.395c-22.653 17.348-50.981 27.656-81.716 27.656-74.297 0-134.527-60.23-134.527-134.526s60.23-134.525 134.527-134.525c74.295 0 134.524 60.229 134.524 134.525 0 26.246-7.516 50.737-20.514 71.437l29.896 29.01c7.217-3.631 16.285-2.522 22.387 3.4l69.482 67.424c7.697 7.47 7.885 19.879.415 27.576l-25.086 25.853c-7.47 7.698-19.878 7.883-27.576.416l-69.483-67.424c-6.318-6.129-7.576-15.588-3.696-23.037zm22.883-22.271c-3.345 4.131-6.93 8.06-10.734 11.766l27.046 26.245 11.086-11.425zm-104.599-203.124c-65.461 0-118.527 53.065-118.527 118.525 0 65.459 53.066 118.526 118.527 118.526 65.459 0 118.524-53.067 118.524-118.526s-53.065-118.525-118.524-118.525zm-.001 13.686c57.901 0 104.839 46.938 104.839 104.839s-46.938 104.839-104.839 104.839-104.84-46.938-104.84-104.839 46.939-104.839 104.84-104.839zm0 16c-49.064 0-88.84 39.774-88.84 88.839 0 49.064 39.776 88.839 88.84 88.839 49.065 0 88.84-39.775 88.84-88.839 0-49.065-39.775-88.839-88.84-88.839zm57.848 41.621-28.284 60.732c-3.294 7.072-8.978 12.756-16.05 16.05l-60.732 28.284c-3.048 1.419-6.657.781-9.034-1.596-2.378-2.377-3.015-5.986-1.596-9.034l28.284-60.732c3.294-7.073 8.977-12.756 16.05-16.05l60.732-28.284c3.048-1.419 6.657-.782 9.034 1.596 2.377 2.377 3.015 5.986 1.596 9.034zm-82.723 61.534-9.203 19.762 19.762-9.204c-2.137-1.23-4.148-2.758-5.974-4.584s-3.354-3.838-4.585-5.974zm49.749-28.632 9.204-19.762-19.762 9.203c2.136 1.231 4.148 2.759 5.974 4.585s3.354 3.837 4.584 5.974zm-15.898 5.34c-4.954-4.954-12.998-4.954-17.952 0s-4.954 12.998 0 17.952 12.998 4.954 17.952 0 4.954-12.998 0-17.952zm190.646 222.534 25.087-25.853c1.341-1.383 1.306-3.611-.076-4.952l-69.482-67.424c-1.382-1.341-3.611-1.307-4.952.075l-25.087 25.853c-1.341 1.382-1.307 3.611.075 4.952l69.481 67.422c1.383 1.341 3.612 1.31 4.954-.073zm-419.261 6.099c1.087.977 4.486 3.92 7.268 5.122 2.508 1.083 5.21 1.855 7.705 2.051 3.533.278 6.462 2.847 7.199 6.313.736 3.467-.896 7.005-4.011 8.694-4.517 2.451-9.022 5.426-12.124 8.667-.942.984-1.744 1.969-2.268 2.988-.172.334-.489.608-.368.935.19.516.693.911 1.287 1.371 6.319 4.692 11.781 13.223 12.007 37.616.001.152-.002.304-.009.456-.12 2.517 1.513 3.874 4.225 4.647 6.184 1.764 15.578 1.286 28.183-.889 23.901-5.37 42.826-3.116 56.87 5.814 12.832 8.158 21.932 22.045 26.67 42.033h167.029c-21.283-46.92-30.266-91.145-26.061-129.36 1.485-13.642 6.36-24.953 15.263-35.415 6.992-8.257 13.139-17.261 18.303-26.876 2.089-3.89 6.943-5.352 10.833-3.263 3.889 2.089 5.351 6.943 3.262 10.833-5.696 10.607-12.476 20.539-20.19 29.648l-.014.016c-6.737 7.914-10.428 16.47-11.551 26.79l-.001.01c-4.268 38.775 6.34 84.054 29.965 132.086 1.22 2.48 1.073 5.413-.387 7.759-1.461 2.346-4.028 3.772-6.792 3.772h-186.17c-3.876 0-7.194-2.778-7.875-6.594-3.246-18.173-9.916-30.974-20.869-37.937-11.071-7.039-26.079-7.932-44.941-3.668-.132.03-.264.056-.397.079-15.906 2.761-27.747 2.766-35.519.549-5.398-1.54-9.262-4.146-11.84-7.419-2.747-3.488-4.194-7.834-3.989-13.133-.092-8.857-.794-14.926-2.147-19.198-.869-2.744-1.937-4.433-3.42-5.527-.047-.035-.094-.071-.141-.107-5.091-3.935-7.142-8.359-7.515-12.659-.36-4.148.94-8.477 3.854-12.618 1.42-2.018 3.279-4.025 5.432-5.962-4.054-2.289-7.519-5.076-9.663-7.952-3.425-4.595-4.224-9.512-2.487-14.031 1.186-4.152 1.886-7.576 2.069-10.436.24-3.756-.666-5.893-3.141-7.195-9.786-4.828-15.235-10.783-17.241-16.915-2.208-6.75-.839-14.428 5.614-22.666.131-.167.269-.329.413-.486 9.602-10.426 17.22-20.957 22.817-31.737.004-.009.009-.018.013-.026 4.706-8.985 6.415-17.916 5.399-28.023-.585-5.667-.847-11.399-.847-17.261 0-59.42 30.304-111.769 76.308-142.402 3.675-2.447 8.646-1.45 11.093 2.225s1.45 8.646-2.225 11.093c-41.702 27.768-69.176 75.22-69.176 129.084 0 5.31.234 10.501.764 15.633.001.008.002.015.003.023 1.343 13.359-.921 25.162-7.137 37.036-6.158 11.86-14.485 23.477-25.022 34.955-2.204 2.847-3.58 5.223-2.81 7.578.988 3.017 4.348 5.198 9.176 7.572.048.023.095.047.142.071 3.559 1.838 6.303 4.163 8.296 7.106 3.799 5.61 5.104 14.302.886 29.13z" fill="#ffffff" fill-opacity="1" data-original-color="#000000ff" stroke="none" stroke-opacity="1"/></g></svg>