<svg id="_x33_0" enable-background="new 0 0 64 64" height="300" viewBox="0 0 64 64" width="300" xmlns="http://www.w3.org/2000/svg" version="1.1" xmlns:xlink="http://www.w3.org/1999/xlink" xmlns:svgjs="http://svgjs.dev/svgjs"><g width="100%" height="100%" transform="matrix(1,0,0,1,0,0)"><g><path d="m54 45c-4.962 0-9 4.038-9 9s4.038 9 9 9 9-4.038 9-9-4.038-9-9-9zm5.736 5h-1.544c-.376-.912-.841-1.711-1.315-2.374 1.153.522 2.141 1.346 2.859 2.374zm1.264 4c0 .695-.105 1.366-.295 2h-1.903c.125-.629.198-1.295.198-2s-.073-1.371-.197-2h1.903c.189.634.294 1.305.294 2zm-7 6.662c-.54-.53-1.339-1.441-1.979-2.662h3.957c-.639 1.221-1.439 2.132-1.978 2.662zm-2.744-4.662c-.156-.622-.256-1.287-.256-2s.1-1.378.256-2h5.488c.156.622.256 1.287.256 2s-.1 1.378-.256 2zm-4.256-2c0-.695.105-1.366.295-2h1.903c-.125.629-.198 1.295-.198 2s.073 1.371.197 2h-1.903c-.189-.634-.294-1.305-.294-2zm7-6.662c.54.53 1.339 1.441 1.979 2.662h-3.957c.639-1.221 1.438-2.132 1.978-2.662zm-2.877.288c-.475.664-.939 1.463-1.315 2.374h-1.544c.718-1.028 1.706-1.852 2.859-2.374zm-2.859 10.374h1.544c.376.912.841 1.711 1.315 2.374-1.153-.522-2.141-1.346-2.859-2.374zm8.613 2.374c.475-.664.939-1.463 1.315-2.374h1.544c-.718 1.028-1.706 1.852-2.859 2.374z" fill="#ffffff" fill-opacity="1" data-original-color="#000000ff" stroke="none" stroke-opacity="1"/><path d="m26 53c-1.654 0-3 1.346-3 3s1.346 3 3 3c1.302 0 2.402-.839 2.816-2h10.184v-2h-10.184c-.414-1.161-1.514-2-2.816-2zm0 4c-.551 0-1-.449-1-1s.449-1 1-1 1 .449 1 1-.449 1-1 1z" fill="#ffffff" fill-opacity="1" data-original-color="#000000ff" stroke="none" stroke-opacity="1"/><circle cx="34" cy="38" r="1" fill="#ffffff" fill-opacity="1" data-original-color="#000000ff" stroke="none" stroke-opacity="1"/><path d="m34 33c-2.757 0-5 2.243-5 5s2.243 5 5 5 5-2.243 5-5-2.243-5-5-5zm0 8c-1.654 0-3-1.346-3-3s1.346-3 3-3 3 1.346 3 3-1.346 3-3 3z" fill="#ffffff" fill-opacity="1" data-original-color="#000000ff" stroke="none" stroke-opacity="1"/><path d="m47 35.92v-12.92c0-2.206-1.794-4-4-4-.829 0-1.6.254-2.239.688-.547-1.56-2.017-2.688-3.761-2.688-.829 0-1.6.254-2.239.688-.547-1.56-2.017-2.688-3.761-2.688-.286 0-.564.033-.833.09 1.367-1.166 2.305-2.768 2.66-4.537l3.705 4.447h14.468v-14h-6v12h-2v-8h-6v7.438l-4.153-4.984c-.722-3.673-3.965-6.454-7.847-6.454-4.411 0-8 3.589-8 8 0 2.111.861 4.098 2.292 5.571l-5.638 4.429h-12.654v2h13.346l6.555-5.151c.033.02.067.037.099.056v11.205c-1.272-1.3-3.042-2.11-5-2.11h-.279c-1.5 0-2.721 1.221-2.721 2.721 0 .293.047.583.14.86.581 1.742.959 3.552 1.125 5.38l.471 5.183c.19 2.094.805 4.088 1.826 5.927l3.146 5.663c-.444.646-.708 1.425-.708 2.266v6c0 2.206 1.794 4 4 4h16c2.206 0 4-1.794 4-4v-6c0-.758-.224-1.461-.592-2.065 2.956-3.315 4.592-7.537 4.592-12.006v-.449l4.351-3.48h11.649v-2h-12.351zm0-32.92h2v10h-2zm-6 4v6h-2v-6zm-14 10h-4v-2h4zm0-4h-4v-2c0-1.103.897-2 2-2s2 .897 2 2zm-4 6h4v2h-4zm10 6h-4v-2h4zm-4 2h4v2h-3c-.551 0-1-.449-1-1zm6-2h4v4h-4zm6 2h4v2h-4zm2-6c1.103 0 2 .897 2 2v2h-4v-2c0-1.103.897-2 2-2zm-6-2c1.103 0 2 .897 2 2v2h-4v-2c0-1.103.897-2 2-2zm-4 0v2h-4v-2c0-1.103.897-2 2-2s2 .897 2 2zm-8-16c3.309 0 6 2.691 6 6 0 1.721-.752 3.344-2 4.467v-2.467c0-2.206-1.794-4-4-4s-4 1.794-4 4v2.467c-1.248-1.124-2-2.746-2-4.467 0-3.309 2.691-6 6-6zm-8.271 35.964-.471-5.184c-.181-1.982-.591-3.944-1.22-5.832-.025-.073-.038-.15-.038-.227 0-.398.323-.721.721-.721h.279c2.757 0 5 2.243 5 5v3.89c0 .81.089 1.621.265 2.41 1.138 5.122 5.598 8.7 10.845 8.7h10.701c-.524.899-1.138 1.748-1.838 2.542-.585-.335-1.252-.542-1.973-.542h-16c-.625 0-1.21.157-1.737.414l-2.952-5.314c-.886-1.593-1.418-3.321-1.582-5.136zm24.271 20.036c0 1.103-.897 2-2 2h-16c-1.103 0-2-.897-2-2v-6c0-1.103.897-2 2-2h16c1.103 0 2 .897 2 2zm2.817-14h-11.707c-4.303 0-7.959-2.934-8.893-7.134-.144-.647-.217-1.312-.217-1.976v-12.89h4v5c0 1.654 1.346 3 3 3h15v7.929c0 2.113-.407 4.167-1.183 6.071z" fill="#ffffff" fill-opacity="1" data-original-color="#000000ff" stroke="none" stroke-opacity="1"/><path d="m53 37h10v2h-10z" fill="#ffffff" fill-opacity="1" data-original-color="#000000ff" stroke="none" stroke-opacity="1"/><path d="m53 41h10v2h-10z" fill="#ffffff" fill-opacity="1" data-original-color="#000000ff" stroke="none" stroke-opacity="1"/><path d="m53 17v6h10v-6zm8 4h-6v-2h6z" fill="#ffffff" fill-opacity="1" data-original-color="#000000ff" stroke="none" stroke-opacity="1"/><path d="m11 3h-10v6h10zm-2 4h-6v-2h6z" fill="#ffffff" fill-opacity="1" data-original-color="#000000ff" stroke="none" stroke-opacity="1"/><path d="m11 11h-10v6h10zm-2 4h-6v-2h6z" fill="#ffffff" fill-opacity="1" data-original-color="#000000ff" stroke="none" stroke-opacity="1"/><path d="m53 31h10v-6h-10zm2-4h6v2h-6z" fill="#ffffff" fill-opacity="1" data-original-color="#000000ff" stroke="none" stroke-opacity="1"/><path d="m1 23h10v2h-10z" fill="#ffffff" fill-opacity="1" data-original-color="#000000ff" stroke="none" stroke-opacity="1"/><path d="m1 27h2v2h-2z" fill="#ffffff" fill-opacity="1" data-original-color="#000000ff" stroke="none" stroke-opacity="1"/><path d="m5 27h2v2h-2z" fill="#ffffff" fill-opacity="1" data-original-color="#000000ff" stroke="none" stroke-opacity="1"/><path d="m9 27h2v2h-2z" fill="#ffffff" fill-opacity="1" data-original-color="#000000ff" stroke="none" stroke-opacity="1"/><path d="m9 47c-4.411 0-8 3.589-8 8s3.589 8 8 8 8-3.589 8-8-3.589-8-8-8zm0 14c-3.309 0-6-2.691-6-6 0-2.967 2.167-5.431 5-5.91v6.528l5.836 2.918c-1.092 1.491-2.85 2.464-4.836 2.464zm5.738-4.249-4.738-2.369v-5.292c2.833.478 5 2.942 5 5.91 0 .609-.093 1.197-.262 1.751z" fill="#ffffff" fill-opacity="1" data-original-color="#000000ff" stroke="none" stroke-opacity="1"/></g></g></svg>