<?xml version="1.0" encoding="utf-8"?>
<!-- Generator: Adobe Illustrator 21.1.0, SVG Export Plug-In . SVG Version: 6.00 Build 0)  -->
<svg version="1.1" id="Layer_1" xmlns="http://www.w3.org/2000/svg" xmlns:xlink="http://www.w3.org/1999/xlink" x="0px" y="0px"
	 viewBox="0 0 249 150" style="enable-background:new 0 0 249 150;" xml:space="preserve">
<style type="text/css">
	.st0{fill:#282560;}
	.st1{fill:#F69322;}
	.st2{fill:#29AAE1;}
	.st3{fill:#EC2179;}
	.st4{fill:#030303;}
	.st5{fill:#939393;}
	.st6{fill:#737373;}
	.st7{fill:#636464;}
</style>
<g>
	<g>
		<g>
			<g>
				<path class="st0" d="M14.3,77.3h12.9v16.6h-4.3L22.3,90c-1.6,1.9-4,4.7-9.6,4.7c-7.4,0-14.1-5.3-14.1-16.1
					c0-8.4,4.7-16.3,15-16.3c9.4,0,13.2,6.1,13.5,10.4h-6.4c0-1.2-2.2-5.1-6.7-5.1c-4.6,0-8.8,3.2-8.8,11.1c0,8.4,4.6,10.6,9,10.6
					c1.4,0,6.1-0.6,7.5-6.8h-7.2V77.3z"/>
				<path class="st0" d="M50.3,89.4c0,2.7,0.6,3.3,1.3,3.6v0.9h-6.5c-0.3-1.1-0.4-1.4-0.6-2.7c-1.4,1.4-3.3,3.3-7.4,3.3
					c-3.4,0-6.9-1.9-6.9-6.6c0-4.5,2.8-6.7,6.6-7.3l5.4-0.8c0.9-0.1,2.1-0.5,2.1-1.8c0-2.5-2.4-2.7-3.9-2.7c-3,0-3.5,1.8-3.7,3.2H31
					c0.7-7,5.5-8,10.2-8c3.2,0,9.1,1,9.1,6.6V89.4z M44.4,82.8c-0.6,0.5-1.6,0.9-4.1,1.2c-2.2,0.4-4.1,0.9-4.1,3.4
					c0,2.1,1.6,2.7,2.8,2.7c2.7,0,5.4-1.7,5.4-4.5V82.8z"/>
				<path class="st0" d="M54.7,71.1h5.7V75h0.1c1.2-2.3,2.6-4.5,6.3-4.5c0.4,0,0.8,0,1.2,0.1v6.1c-0.5-0.1-1.2-0.1-1.7-0.1
					c-4.7,0-5.5,2.9-5.5,5.4v11.9h-6V71.1z"/>
				<path class="st0" d="M79.9,94.5c-6.1,0-11.7-3.8-11.7-12c0-8.2,5.5-12,11.7-12c6.1,0,11.7,3.8,11.7,12
					C91.6,90.7,86,94.5,79.9,94.5z M79.9,75.5c-4.6,0-5.5,4-5.5,6.9c0,2.9,0.9,6.9,5.5,6.9c4.6,0,5.5-4,5.5-6.9
					C85.4,79.6,84.5,75.5,79.9,75.5z"/>
				<path class="st0" d="M115.7,93.9h-5.9V91h-0.1c-1.5,2.6-4.1,3.5-6.6,3.5c-6.8,0-9.6-6-9.6-12.3c0-7.9,4.5-11.7,9.5-11.7
					c3.9,0,5.7,2.1,6.6,3.6h0.1V63.1h6V93.9z M104.6,89.6c3.8,0,5.3-3.2,5.3-6.6c0-3.6-1-7.3-5.1-7.3c-3.8,0-5.1,3.4-5.1,7
					C99.7,85.4,100.7,89.6,104.6,89.6z"/>
				<path class="st0" d="M126.2,68.4h-6v-5.6h6V68.4z M126.2,71.1v22.8h-6V71.1H126.2z"/>
				<path class="st0" d="M149.5,89.4c0,2.7,0.6,3.3,1.3,3.6v0.9h-6.5c-0.3-1.1-0.4-1.4-0.6-2.7c-1.4,1.4-3.3,3.3-7.4,3.3
					c-3.4,0-6.9-1.9-6.9-6.6c0-4.5,2.8-6.7,6.6-7.3l5.4-0.8c0.9-0.1,2.1-0.5,2.1-1.8c0-2.5-2.4-2.7-3.9-2.7c-3,0-3.5,1.8-3.7,3.2
					h-5.8c0.7-7,5.5-8,10.2-8c3.2,0,9.1,1,9.1,6.6V89.4z M143.6,82.8c-0.6,0.5-1.6,0.9-4.1,1.2c-2.2,0.4-4.1,0.9-4.1,3.4
					c0,2.1,1.6,2.7,2.8,2.7c2.7,0,5.4-1.7,5.4-4.5V82.8z"/>
			</g>
			<g>
				<g>
					<path class="st0" d="M7.3,126.3H0.9V95.5h6.4V126.3z"/>
					<path class="st0" d="M31.9,126.3h-6v-13.8c0-1.7-0.1-4.5-3.9-4.5c-2.7,0-4.7,1.8-4.7,5.3v13.1h-6v-22.8h5.7v3.3h0.1
						c0.8-1.4,2.5-3.9,6.9-3.9c4.5,0,7.9,2.6,7.9,7.6V126.3z"/>
					<path class="st0" d="M42.7,103.5h3.7v4.3h-3.7v12.4c0,1.3,0,1.8,2.5,1.8c0.4,0,0.8,0,1.2-0.1v4.5c-0.9,0-1.9,0.1-2.8,0.1h-0.8
						c-5.2,0-6.1-2-6.1-4.9v-13.8h-3.1v-4.3h3.1v-6.2h6V103.5z"/>
					<path class="st0" d="M68.3,119.6c-1.6,5.5-6.1,7.3-10,7.3c-6.4,0-11.4-3.1-11.4-12.5c0-2.7,0.9-11.5,10.9-11.5
						c4.5,0,10.7,2.1,10.7,12.6v1.1H52.9c0.2,1.7,0.5,5.6,5.4,5.6c1.7,0,3.4-0.9,3.9-2.5H68.3z M62.4,112.6
						c-0.3-3.7-2.7-4.8-4.6-4.8c-2.8,0-4.3,1.8-4.7,4.8H62.4z"/>
					<path class="st0" d="M70.9,103.5h5.7v3.9h0.1c1.2-2.3,2.6-4.5,6.3-4.5c0.4,0,0.8,0,1.2,0.1v6.1c-0.5-0.1-1.2-0.1-1.7-0.1
						c-4.7,0-5.5,2.9-5.5,5.4v11.9h-6V103.5z"/>
					<path class="st0" d="M106.7,126.3h-6v-13.8c0-1.7-0.1-4.5-3.9-4.5c-2.7,0-4.7,1.8-4.7,5.3v13.1h-6v-22.8h5.7v3.3h0.1
						c0.8-1.4,2.5-3.9,6.9-3.9c4.5,0,7.9,2.6,7.9,7.6V126.3z"/>
					<path class="st0" d="M129.2,121.8c0,2.7,0.6,3.3,1.3,3.6v0.9h-6.5c-0.3-1.1-0.4-1.4-0.6-2.7c-1.4,1.4-3.3,3.3-7.4,3.3
						c-3.4,0-6.9-1.9-6.9-6.6c0-4.5,2.8-6.7,6.6-7.3l5.4-0.8c0.9-0.1,2.1-0.5,2.1-1.8c0-2.5-2.4-2.7-3.9-2.7c-3,0-3.5,1.8-3.7,3.2
						h-5.8c0.7-7,5.5-8,10.2-8c3.2,0,9.1,1,9.1,6.6V121.8z M123.4,115.2c-0.6,0.5-1.6,0.9-4.1,1.2c-2.2,0.4-4.1,0.9-4.1,3.4
						c0,2.1,1.6,2.7,2.8,2.7c2.7,0,5.4-1.7,5.4-4.5V115.2z"/>
					<path class="st0" d="M139.8,103.5h3.7v4.3h-3.7v12.4c0,1.3,0,1.8,2.5,1.8c0.4,0,0.8,0,1.2-0.1v4.5c-0.9,0-1.9,0.1-2.8,0.1h-0.8
						c-5.2,0-6.1-2-6.1-4.9v-13.8h-3.1v-4.3h3.1v-6.2h6V103.5z"/>
					<path class="st0" d="M151.9,100.8h-6v-5.6h6V100.8z M151.9,103.5v22.8h-6v-22.8H151.9z"/>
					<path class="st0" d="M166.5,126.9c-6.1,0-11.7-3.8-11.7-12c0-8.2,5.5-12,11.7-12c6.1,0,11.7,3.8,11.7,12
						C178.1,123.1,172.6,126.9,166.5,126.9z M166.5,107.9c-4.6,0-5.5,4-5.5,6.9c0,2.9,0.9,6.9,5.5,6.9c4.6,0,5.5-4,5.5-6.9
						C172,111.9,171.1,107.9,166.5,107.9z"/>
					<path class="st0" d="M201.4,126.3h-6v-13.8c0-1.7-0.1-4.5-3.9-4.5c-2.7,0-4.7,1.8-4.7,5.3v13.1h-6v-22.8h5.7v3.3h0.1
						c0.8-1.4,2.5-3.9,6.9-3.9c4.5,0,7.9,2.6,7.9,7.6V126.3z"/>
					<path class="st0" d="M223.9,121.8c0,2.7,0.6,3.3,1.3,3.6v0.9h-6.5c-0.3-1.1-0.4-1.4-0.6-2.7c-1.4,1.4-3.3,3.3-7.4,3.3
						c-3.4,0-6.9-1.9-6.9-6.6c0-4.5,2.8-6.7,6.6-7.3l5.4-0.8c0.9-0.1,2.1-0.5,2.1-1.8c0-2.5-2.4-2.7-3.9-2.7c-3,0-3.5,1.8-3.7,3.2
						h-5.8c0.7-7,5.5-8,10.2-8c3.2,0,9.1,1,9.1,6.6V121.8z M218,115.2c-0.6,0.5-1.6,0.9-4.1,1.2c-2.2,0.4-4.1,0.9-4.1,3.4
						c0,2.1,1.6,2.7,2.8,2.7c2.7,0,5.4-1.7,5.4-4.5V115.2z"/>
					<path class="st0" d="M233.9,126.3h-6V95.5h6V126.3z"/>
				</g>
			</g>
			<g>
				<path class="st0" d="M11,135.6c-0.3-0.4-0.6-0.7-0.9-1c-0.4-0.3-0.8-0.5-1.2-0.6c-0.4-0.1-0.9-0.2-1.4-0.2
					c-0.9,0-1.6,0.2-2.3,0.5c-0.6,0.3-1.1,0.8-1.6,1.3s-0.7,1.2-0.9,1.9c-0.2,0.7-0.3,1.4-0.3,2.1c0,0.7,0.1,1.4,0.3,2.1
					s0.5,1.3,0.9,1.9c0.4,0.6,0.9,1,1.6,1.3c0.6,0.3,1.4,0.5,2.3,0.5c0.6,0,1.2-0.1,1.7-0.3c0.5-0.2,0.9-0.5,1.3-0.9
					c0.4-0.4,0.7-0.8,0.9-1.3c0.2-0.5,0.4-1.1,0.4-1.7H13c-0.1,0.8-0.3,1.6-0.6,2.2c-0.3,0.7-0.7,1.2-1.2,1.7
					c-0.5,0.5-1,0.8-1.7,1.1c-0.6,0.2-1.3,0.4-2.1,0.4c-1,0-2-0.2-2.7-0.6c-0.8-0.4-1.4-0.9-2-1.5c-0.5-0.6-0.9-1.4-1.2-2.2
					c-0.3-0.8-0.4-1.7-0.4-2.6s0.1-1.8,0.4-2.6c0.3-0.8,0.7-1.6,1.2-2.2c0.5-0.6,1.2-1.1,2-1.5c0.8-0.4,1.7-0.6,2.7-0.6
					c0.6,0,1.2,0.1,1.8,0.3c0.6,0.2,1.1,0.5,1.6,0.8c0.5,0.4,0.9,0.8,1.2,1.3s0.5,1.1,0.6,1.8h-1.3C11.4,136.4,11.2,136,11,135.6z"
					/>
				<path class="st0" d="M15.3,143c0.1,0.5,0.3,0.9,0.6,1.2c0.3,0.4,0.6,0.7,1,0.9c0.4,0.2,0.9,0.4,1.4,0.4c0.9,0,1.5-0.2,2-0.7
					c0.5-0.4,0.8-1,1-1.8h1.2c-0.2,1.1-0.7,1.9-1.4,2.5c-0.7,0.6-1.6,0.9-2.8,0.9c-0.8,0-1.4-0.1-2-0.4c-0.6-0.3-1-0.6-1.3-1.1
					c-0.3-0.5-0.6-1-0.8-1.6c-0.2-0.6-0.3-1.3-0.3-1.9c0-0.6,0.1-1.3,0.3-1.9c0.2-0.6,0.4-1.1,0.8-1.6c0.3-0.5,0.8-0.9,1.3-1.2
					c0.6-0.3,1.2-0.4,2-0.4c0.8,0,1.4,0.2,2,0.5c0.5,0.3,1,0.7,1.3,1.2c0.3,0.5,0.6,1.1,0.7,1.7c0.1,0.7,0.2,1.3,0.2,2h-7.4
					C15.1,142.1,15.2,142.6,15.3,143z M21.1,139.4c-0.1-0.4-0.3-0.8-0.6-1.1c-0.3-0.3-0.6-0.6-0.9-0.8c-0.4-0.2-0.8-0.3-1.3-0.3
					c-0.5,0-0.9,0.1-1.3,0.3c-0.4,0.2-0.7,0.4-0.9,0.8c-0.3,0.3-0.5,0.7-0.6,1.1c-0.2,0.4-0.3,0.8-0.3,1.3h6.2
					C21.3,140.3,21.2,139.9,21.1,139.4z"/>
				<path class="st0" d="M25,136.6v1.7h0c0.2-0.6,0.6-1,1.2-1.4c0.6-0.4,1.2-0.5,1.9-0.5c0.7,0,1.2,0.1,1.7,0.3
					c0.5,0.2,0.8,0.4,1.1,0.7c0.3,0.3,0.5,0.7,0.6,1.2c0.1,0.5,0.2,1,0.2,1.5v6.2h-1.2v-6c0-0.4,0-0.8-0.1-1.1s-0.2-0.7-0.4-0.9
					c-0.2-0.3-0.4-0.5-0.8-0.6c-0.3-0.1-0.7-0.2-1.2-0.2c-0.5,0-0.9,0.1-1.3,0.3c-0.4,0.2-0.7,0.4-0.9,0.7c-0.3,0.3-0.5,0.6-0.6,1
					c-0.1,0.4-0.2,0.8-0.2,1.3v5.6h-1.2v-9.6H25z"/>
				<path class="st0" d="M37.4,136.6v1h-2v6.5c0,0.4,0.1,0.7,0.2,0.9c0.1,0.2,0.4,0.3,0.8,0.4c0.3,0,0.7,0,1-0.1v1
					c-0.2,0-0.3,0-0.5,0c-0.2,0-0.3,0-0.5,0c-0.8,0-1.3-0.2-1.6-0.5c-0.3-0.3-0.5-0.9-0.4-1.7v-6.6h-1.7v-1h1.7v-2.9h1.2v2.9H37.4z"
					/>
				<path class="st0" d="M39.9,136.6v2.2h0c0.3-0.8,0.8-1.4,1.4-1.8c0.6-0.4,1.4-0.6,2.2-0.6v1.2c-0.5,0-1,0-1.4,0.2
					s-0.8,0.4-1.1,0.7c-0.3,0.3-0.6,0.7-0.7,1.1c-0.2,0.4-0.3,0.9-0.3,1.4v5.1h-1.2v-9.6H39.9z"/>
				<path class="st0" d="M45,143c0.1,0.5,0.3,0.9,0.6,1.2c0.3,0.4,0.6,0.7,1,0.9c0.4,0.2,0.9,0.4,1.4,0.4c0.9,0,1.5-0.2,2-0.7
					s0.8-1,1-1.8h1.2c-0.2,1.1-0.7,1.9-1.4,2.5c-0.7,0.6-1.6,0.9-2.8,0.9c-0.8,0-1.4-0.1-2-0.4c-0.6-0.3-1-0.6-1.3-1.1
					c-0.3-0.5-0.6-1-0.8-1.6c-0.2-0.6-0.3-1.3-0.3-1.9c0-0.6,0.1-1.3,0.3-1.9c0.2-0.6,0.4-1.1,0.8-1.6c0.3-0.5,0.8-0.9,1.3-1.2
					c0.6-0.3,1.2-0.4,2-0.4c0.8,0,1.4,0.2,2,0.5c0.5,0.3,1,0.7,1.3,1.2c0.3,0.5,0.6,1.1,0.7,1.7c0.1,0.7,0.2,1.3,0.2,2h-7.4
					C44.8,142.1,44.9,142.6,45,143z M50.8,139.4c-0.1-0.4-0.3-0.8-0.6-1.1c-0.3-0.3-0.6-0.6-0.9-0.8c-0.4-0.2-0.8-0.3-1.3-0.3
					c-0.5,0-0.9,0.1-1.3,0.3c-0.4,0.2-0.7,0.4-0.9,0.8c-0.3,0.3-0.5,0.7-0.6,1.1c-0.2,0.4-0.3,0.8-0.3,1.3H51
					C51,140.3,50.9,139.9,50.8,139.4z"/>
				<path class="st0" d="M60.2,137.6v8.6h-1.2v-8.6h-1.6v-1h1.6v-0.9c0-0.4,0-0.8,0.1-1.1c0.1-0.3,0.2-0.6,0.4-0.9
					c0.2-0.2,0.4-0.4,0.7-0.6c0.3-0.1,0.7-0.2,1.2-0.2c0.2,0,0.3,0,0.5,0c0.1,0,0.3,0,0.5,0.1v1c-0.2,0-0.3,0-0.4-0.1
					c-0.1,0-0.3,0-0.4,0c-0.3,0-0.6,0-0.7,0.1c-0.2,0.1-0.3,0.2-0.4,0.4c-0.1,0.2-0.1,0.4-0.1,0.6c0,0.2,0,0.5,0,0.7v0.8h1.9v1H60.2
					z"/>
				<path class="st0" d="M69,136.7c0.6,0.3,1,0.6,1.4,1.1c0.4,0.5,0.7,1,0.9,1.6c0.2,0.6,0.3,1.3,0.3,2s-0.1,1.3-0.3,2
					c-0.2,0.6-0.5,1.1-0.9,1.6c-0.4,0.5-0.9,0.8-1.4,1.1c-0.6,0.3-1.2,0.4-1.9,0.4c-0.7,0-1.4-0.1-1.9-0.4c-0.6-0.3-1-0.6-1.4-1.1
					c-0.4-0.5-0.7-1-0.9-1.6c-0.2-0.6-0.3-1.3-0.3-2s0.1-1.3,0.3-2c0.2-0.6,0.5-1.1,0.9-1.6c0.4-0.5,0.9-0.8,1.4-1.1
					c0.6-0.3,1.2-0.4,1.9-0.4C67.8,136.3,68.4,136.5,69,136.7z M65.6,137.7c-0.4,0.2-0.8,0.5-1,0.9c-0.3,0.4-0.5,0.8-0.6,1.3
					c-0.1,0.5-0.2,1-0.2,1.5c0,0.5,0.1,1,0.2,1.5c0.1,0.5,0.4,0.9,0.6,1.3c0.3,0.4,0.6,0.7,1,0.9c0.4,0.2,0.9,0.4,1.5,0.4
					c0.6,0,1-0.1,1.5-0.4c0.4-0.2,0.8-0.5,1-0.9c0.3-0.4,0.5-0.8,0.6-1.3c0.1-0.5,0.2-1,0.2-1.5c0-0.5-0.1-1-0.2-1.5
					c-0.1-0.5-0.4-0.9-0.6-1.3c-0.3-0.4-0.6-0.7-1-0.9c-0.4-0.2-0.9-0.4-1.5-0.4C66.5,137.3,66,137.4,65.6,137.7z"/>
				<path class="st0" d="M74.2,136.6v2.2h0c0.3-0.8,0.8-1.4,1.4-1.8c0.6-0.4,1.4-0.6,2.2-0.6v1.2c-0.5,0-1,0-1.4,0.2
					s-0.8,0.4-1.1,0.7c-0.3,0.3-0.6,0.7-0.7,1.1c-0.2,0.4-0.3,0.9-0.3,1.4v5.1h-1.2v-9.6H74.2z"/>
				<path class="st0" d="M85.1,132.9v12.2h7.4v1.1h-8.7v-13.3H85.1z"/>
				<path class="st0" d="M94.2,143c0.1,0.5,0.3,0.9,0.6,1.2c0.3,0.4,0.6,0.7,1,0.9c0.4,0.2,0.9,0.4,1.4,0.4c0.9,0,1.5-0.2,2-0.7
					s0.8-1,1-1.8h1.2c-0.2,1.1-0.7,1.9-1.4,2.5c-0.7,0.6-1.6,0.9-2.8,0.9c-0.8,0-1.4-0.1-2-0.4c-0.6-0.3-1-0.6-1.3-1.1
					c-0.3-0.5-0.6-1-0.8-1.6c-0.2-0.6-0.3-1.3-0.3-1.9c0-0.6,0.1-1.3,0.3-1.9c0.2-0.6,0.4-1.1,0.8-1.6c0.3-0.5,0.8-0.9,1.3-1.2
					c0.6-0.3,1.2-0.4,2-0.4c0.8,0,1.4,0.2,2,0.5c0.5,0.3,1,0.7,1.3,1.2c0.3,0.5,0.6,1.1,0.7,1.7c0.1,0.7,0.2,1.3,0.2,2H94
					C94,142.1,94.1,142.6,94.2,143z M100,139.4c-0.1-0.4-0.3-0.8-0.6-1.1c-0.3-0.3-0.6-0.6-0.9-0.8c-0.4-0.2-0.8-0.3-1.3-0.3
					c-0.5,0-0.9,0.1-1.3,0.3c-0.4,0.2-0.7,0.4-0.9,0.8c-0.3,0.3-0.5,0.7-0.6,1.1c-0.2,0.4-0.3,0.8-0.3,1.3h6.2
					C100.2,140.3,100.2,139.9,100,139.4z"/>
				<path class="st0" d="M103,138.1c0.2-0.4,0.5-0.7,0.8-1c0.3-0.3,0.7-0.5,1.2-0.6c0.5-0.1,1-0.2,1.5-0.2c0.4,0,0.8,0,1.3,0.1
					c0.4,0.1,0.8,0.2,1.1,0.5c0.3,0.2,0.6,0.5,0.8,0.9c0.2,0.4,0.3,0.9,0.3,1.6v5.1c0,0.5,0.2,0.7,0.7,0.7c0.1,0,0.3,0,0.4-0.1v1
					c-0.1,0-0.3,0-0.4,0.1c-0.1,0-0.2,0-0.4,0c-0.3,0-0.5,0-0.7-0.1c-0.2-0.1-0.3-0.2-0.4-0.3c-0.1-0.1-0.2-0.3-0.2-0.5
					c0-0.2,0-0.4,0-0.7h0c-0.2,0.3-0.4,0.6-0.6,0.8c-0.2,0.2-0.5,0.4-0.7,0.6c-0.3,0.2-0.6,0.3-0.9,0.4c-0.3,0.1-0.7,0.1-1.2,0.1
					c-0.4,0-0.9-0.1-1.3-0.2c-0.4-0.1-0.7-0.3-1-0.5c-0.3-0.2-0.5-0.5-0.7-0.9c-0.2-0.4-0.3-0.8-0.3-1.3c0-0.7,0.1-1.2,0.4-1.6
					c0.3-0.4,0.7-0.7,1.2-0.9c0.5-0.2,1-0.3,1.7-0.4c0.6-0.1,1.2-0.2,1.9-0.2c0.2,0,0.5-0.1,0.6-0.1c0.2,0,0.3-0.1,0.5-0.2
					c0.1-0.1,0.2-0.2,0.3-0.4c0.1-0.2,0.1-0.4,0.1-0.6c0-0.4-0.1-0.7-0.2-1c-0.1-0.3-0.3-0.5-0.5-0.6c-0.2-0.1-0.5-0.3-0.8-0.3
					c-0.3-0.1-0.6-0.1-1-0.1c-0.7,0-1.4,0.2-1.8,0.5c-0.5,0.4-0.7,0.9-0.7,1.7h-1.2C102.7,139,102.8,138.5,103,138.1z M108.8,141
					c-0.1,0.1-0.2,0.2-0.4,0.3c-0.2,0.1-0.4,0.1-0.6,0.1c-0.5,0.1-1,0.2-1.5,0.2c-0.5,0.1-1,0.2-1.4,0.3c-0.4,0.1-0.8,0.3-1.1,0.6
					c-0.3,0.3-0.4,0.6-0.4,1.1c0,0.3,0.1,0.6,0.2,0.8c0.1,0.2,0.3,0.4,0.5,0.6c0.2,0.2,0.4,0.3,0.7,0.4c0.3,0.1,0.5,0.1,0.8,0.1
					c0.4,0,0.9-0.1,1.3-0.2c0.4-0.1,0.8-0.3,1.1-0.6c0.3-0.3,0.5-0.6,0.7-0.9c0.2-0.4,0.3-0.8,0.3-1.3L108.8,141L108.8,141z"/>
				<path class="st0" d="M113.2,136.6v2.2h0c0.3-0.8,0.8-1.4,1.4-1.8c0.6-0.4,1.4-0.6,2.2-0.6v1.2c-0.5,0-1,0-1.4,0.2
					s-0.8,0.4-1.1,0.7c-0.3,0.3-0.6,0.7-0.7,1.1c-0.2,0.4-0.3,0.9-0.3,1.4v5.1h-1.2v-9.6H113.2z"/>
				<path class="st0" d="M119.2,136.6v1.7h0c0.2-0.6,0.6-1,1.2-1.4c0.6-0.4,1.2-0.5,1.9-0.5c0.7,0,1.2,0.1,1.7,0.3
					c0.5,0.2,0.8,0.4,1.1,0.7c0.3,0.3,0.5,0.7,0.6,1.2c0.1,0.5,0.2,1,0.2,1.5v6.2h-1.2v-6c0-0.4,0-0.8-0.1-1.1s-0.2-0.7-0.4-0.9
					c-0.2-0.3-0.4-0.5-0.8-0.6c-0.3-0.1-0.7-0.2-1.2-0.2c-0.5,0-0.9,0.1-1.3,0.3c-0.4,0.2-0.7,0.4-0.9,0.7c-0.3,0.3-0.5,0.6-0.6,1
					c-0.1,0.4-0.2,0.8-0.2,1.3v5.6h-1.2v-9.6H119.2z"/>
				<path class="st0" d="M129,132.9v1.9h-1.2v-1.9H129z M129,136.6v9.6h-1.2v-9.6H129z"/>
				<path class="st0" d="M132.2,136.6v1.7h0c0.2-0.6,0.6-1,1.2-1.4c0.6-0.4,1.2-0.5,1.9-0.5c0.7,0,1.2,0.1,1.7,0.3
					c0.5,0.2,0.8,0.4,1.1,0.7s0.5,0.7,0.6,1.2c0.1,0.5,0.2,1,0.2,1.5v6.2h-1.2v-6c0-0.4,0-0.8-0.1-1.1c-0.1-0.4-0.2-0.7-0.4-0.9
					c-0.2-0.3-0.4-0.5-0.8-0.6c-0.3-0.1-0.7-0.2-1.2-0.2c-0.5,0-0.9,0.1-1.3,0.3c-0.4,0.2-0.7,0.4-0.9,0.7c-0.3,0.3-0.5,0.6-0.6,1
					c-0.1,0.4-0.2,0.8-0.2,1.3v5.6H131v-9.6H132.2z"/>
				<path class="st0" d="M148.6,147.3c-0.2,0.6-0.4,1.1-0.7,1.4c-0.3,0.4-0.8,0.7-1.3,0.9c-0.5,0.2-1.2,0.3-2,0.3
					c-0.5,0-1-0.1-1.4-0.2c-0.5-0.1-0.9-0.3-1.2-0.5c-0.4-0.2-0.7-0.5-0.9-0.9c-0.2-0.4-0.4-0.8-0.4-1.3h1.2
					c0.1,0.4,0.2,0.7,0.4,0.9c0.2,0.2,0.4,0.4,0.6,0.6s0.5,0.3,0.8,0.3c0.3,0.1,0.6,0.1,0.9,0.1c1.1,0,1.9-0.3,2.4-0.9
					s0.7-1.5,0.7-2.7v-1.3h0c-0.3,0.6-0.7,1.1-1.2,1.4c-0.5,0.4-1.1,0.5-1.8,0.5c-0.8,0-1.4-0.1-2-0.4c-0.5-0.3-1-0.6-1.3-1
					c-0.4-0.4-0.6-1-0.8-1.6c-0.2-0.6-0.2-1.2-0.2-1.9c0-0.7,0.1-1.3,0.3-1.9c0.2-0.6,0.5-1.1,0.8-1.5c0.4-0.4,0.8-0.8,1.4-1
					c0.5-0.3,1.2-0.4,1.8-0.4c0.4,0,0.7,0,1,0.1c0.3,0.1,0.6,0.2,0.9,0.4c0.3,0.2,0.5,0.4,0.7,0.6c0.2,0.2,0.4,0.5,0.5,0.7h0v-1.7
					h1.2v8.8C148.9,146.1,148.8,146.8,148.6,147.3z M145.9,144.8c0.4-0.2,0.7-0.5,1-0.9c0.3-0.4,0.5-0.8,0.6-1.2
					c0.1-0.5,0.2-0.9,0.2-1.4c0-0.5-0.1-0.9-0.2-1.4c-0.1-0.5-0.3-0.9-0.5-1.3c-0.2-0.4-0.6-0.7-1-0.9c-0.4-0.2-0.9-0.4-1.4-0.4
					c-0.6,0-1,0.1-1.4,0.3c-0.4,0.2-0.7,0.5-1,0.9c-0.3,0.4-0.4,0.8-0.6,1.3c-0.1,0.5-0.2,1-0.2,1.5c0,0.5,0.1,1,0.2,1.4
					c0.1,0.5,0.3,0.9,0.6,1.2c0.3,0.4,0.6,0.6,1,0.9c0.4,0.2,0.9,0.3,1.4,0.3C145.1,145.1,145.6,145,145.9,144.8z"/>
				<path class="st0" d="M157.8,132.9l4.4,11.6l4.6-11.6h1.9v13.3h-1.3v-11.5h0l-4.5,11.5h-1.2l-4.4-11.5h0v11.5H156v-13.3H157.8z"
					/>
				<path class="st0" d="M177.5,146.2v-1.7h0c-0.3,0.6-0.8,1.1-1.3,1.5s-1.2,0.5-2,0.5c-0.6,0-1.1-0.1-1.6-0.3
					c-0.4-0.2-0.8-0.4-1-0.7c-0.3-0.3-0.5-0.7-0.6-1.1c-0.1-0.4-0.2-1-0.2-1.5v-6.2h1.2v6.2c0,0.9,0.2,1.5,0.6,2s1,0.7,2,0.7
					c0.5,0,0.9-0.1,1.3-0.3c0.4-0.2,0.7-0.5,0.9-0.9c0.2-0.4,0.4-0.8,0.5-1.2c0.1-0.5,0.2-0.9,0.2-1.4v-5h1.2v9.6H177.5z"/>
				<path class="st0" d="M181.6,136.6v1.6h0.1c0.3-0.6,0.7-1.1,1.2-1.4s1.1-0.5,1.9-0.5c0.6,0,1.2,0.2,1.7,0.5
					c0.5,0.3,0.9,0.8,1,1.4c0.3-0.6,0.7-1.1,1.3-1.4c0.6-0.3,1.2-0.5,1.8-0.5c2.1,0,3.2,1.1,3.2,3.4v6.5h-1.2v-6.4
					c0-0.8-0.2-1.4-0.5-1.8c-0.3-0.4-0.9-0.6-1.8-0.6c-0.5,0-0.9,0.1-1.3,0.3c-0.3,0.2-0.6,0.4-0.8,0.8c-0.2,0.3-0.3,0.7-0.4,1.1
					c-0.1,0.4-0.1,0.8-0.1,1.3v5.4h-1.2v-6.5c0-0.3,0-0.6-0.1-0.9c-0.1-0.3-0.2-0.5-0.3-0.8c-0.2-0.2-0.4-0.4-0.6-0.5
					c-0.3-0.1-0.6-0.2-0.9-0.2c-0.5,0-0.9,0.1-1.3,0.3c-0.4,0.2-0.7,0.4-0.9,0.7c-0.2,0.3-0.4,0.7-0.5,1.1c-0.1,0.4-0.2,0.9-0.2,1.4
					v5.4h-1.2v-9.6H181.6z"/>
				<path class="st0" d="M196.9,132.9v5.5h0c0.1-0.3,0.3-0.6,0.5-0.9c0.2-0.3,0.5-0.5,0.8-0.7c0.3-0.2,0.6-0.3,1-0.4
					c0.3-0.1,0.7-0.1,1-0.1c0.7,0,1.4,0.1,1.9,0.4c0.5,0.3,1,0.6,1.3,1.1c0.4,0.5,0.6,1,0.8,1.6c0.2,0.6,0.3,1.3,0.3,1.9
					s-0.1,1.3-0.3,1.9c-0.2,0.6-0.4,1.2-0.8,1.6c-0.4,0.5-0.8,0.8-1.3,1.1c-0.5,0.3-1.2,0.4-1.9,0.4c-0.8,0-1.5-0.2-2.1-0.5
					c-0.6-0.4-1.1-0.9-1.3-1.5h0v1.8h-1.1v-13.3H196.9z M203.2,139.9c-0.1-0.5-0.3-0.9-0.6-1.3c-0.3-0.4-0.6-0.7-1-0.9
					c-0.4-0.2-0.9-0.4-1.4-0.4c-0.6,0-1.1,0.1-1.6,0.4c-0.4,0.2-0.8,0.6-1,0.9c-0.3,0.4-0.5,0.8-0.6,1.3c-0.1,0.5-0.2,1-0.2,1.5
					c0,0.5,0.1,1,0.2,1.5c0.1,0.5,0.3,0.9,0.6,1.3c0.3,0.4,0.6,0.7,1,0.9c0.4,0.2,1,0.4,1.6,0.4c0.6,0,1-0.1,1.4-0.4
					c0.4-0.2,0.7-0.6,1-0.9c0.3-0.4,0.4-0.8,0.6-1.3c0.1-0.5,0.2-1,0.2-1.5C203.4,140.9,203.4,140.4,203.2,139.9z"/>
				<path class="st0" d="M206.4,138.1c0.2-0.4,0.5-0.7,0.8-1c0.3-0.3,0.7-0.5,1.2-0.6c0.5-0.1,1-0.2,1.5-0.2c0.4,0,0.8,0,1.3,0.1
					s0.8,0.2,1.1,0.5c0.3,0.2,0.6,0.5,0.8,0.9s0.3,0.9,0.3,1.6v5.1c0,0.5,0.2,0.7,0.7,0.7c0.1,0,0.3,0,0.4-0.1v1
					c-0.1,0-0.3,0-0.4,0.1c-0.1,0-0.2,0-0.4,0c-0.3,0-0.5,0-0.7-0.1c-0.2-0.1-0.3-0.2-0.4-0.3c-0.1-0.1-0.2-0.3-0.2-0.5
					c0-0.2,0-0.4,0-0.7h0c-0.2,0.3-0.4,0.6-0.6,0.8c-0.2,0.2-0.5,0.4-0.7,0.6c-0.3,0.2-0.6,0.3-0.9,0.4c-0.3,0.1-0.7,0.1-1.2,0.1
					c-0.4,0-0.9-0.1-1.3-0.2c-0.4-0.1-0.7-0.3-1-0.5c-0.3-0.2-0.5-0.5-0.7-0.9c-0.2-0.4-0.3-0.8-0.3-1.3c0-0.7,0.1-1.2,0.4-1.6
					c0.3-0.4,0.7-0.7,1.2-0.9c0.5-0.2,1-0.3,1.7-0.4c0.6-0.1,1.2-0.2,1.9-0.2c0.2,0,0.5-0.1,0.7-0.1c0.2,0,0.3-0.1,0.5-0.2
					c0.1-0.1,0.2-0.2,0.3-0.4c0.1-0.2,0.1-0.4,0.1-0.6c0-0.4-0.1-0.7-0.2-1c-0.1-0.3-0.3-0.5-0.5-0.6s-0.5-0.3-0.8-0.3
					c-0.3-0.1-0.6-0.1-1-0.1c-0.7,0-1.3,0.2-1.8,0.5s-0.7,0.9-0.7,1.7h-1.2C206.1,139,206.2,138.5,206.4,138.1z M212.3,141
					c-0.1,0.1-0.2,0.2-0.4,0.3c-0.2,0.1-0.4,0.1-0.6,0.1c-0.5,0.1-1,0.2-1.5,0.2c-0.5,0.1-1,0.2-1.4,0.3c-0.4,0.1-0.8,0.3-1.1,0.6
					c-0.3,0.3-0.4,0.6-0.4,1.1c0,0.3,0.1,0.6,0.2,0.8c0.1,0.2,0.3,0.4,0.5,0.6c0.2,0.2,0.4,0.3,0.7,0.4c0.3,0.1,0.5,0.1,0.8,0.1
					c0.4,0,0.9-0.1,1.3-0.2c0.4-0.1,0.8-0.3,1.1-0.6c0.3-0.3,0.5-0.6,0.7-0.9c0.2-0.4,0.3-0.8,0.3-1.3L212.3,141L212.3,141z"/>
				<path class="st0" d="M216.8,132.9v1.9h-1.2v-1.9H216.8z M216.8,136.6v9.6h-1.2v-9.6H216.8z"/>
			</g>
		</g>
	</g>
	<g>
		<polygon class="st0" points="250.5,77.7 172.8,77.7 172.8,0 		"/>
		<polygon class="st1" points="172.8,77.7 172.8,38.8 134,38.8 		"/>
		<polygon class="st2" points="172.8,0 200.3,27.5 227.7,0 		"/>
		<polygon class="st3" points="120.2,52.6 134,38.8 147.7,52.6 		"/>
	</g>
</g>
<g>
	<g>
		<g>
			<g>
				<path class="st4" d="M328.6,76.7h9.7v12.5h-3.2l-0.5-2.9c-1.2,1.4-3,3.5-7.2,3.5c-5.6,0-10.7-4-10.7-12.2
					c0-6.3,3.5-12.3,11.4-12.3c7.1,0,9.9,4.6,10.2,7.8h-4.9c0-0.9-1.6-3.8-5.1-3.8c-3.5,0-6.7,2.4-6.7,8.3c0,6.3,3.5,8,6.8,8
					c1.1,0,4.6-0.4,5.6-5.1h-5.4V76.7z"/>
				<path class="st4" d="M355.8,85.9c0,2,0.5,2.5,1,2.7v0.7h-4.9c-0.3-0.8-0.3-1.1-0.4-2c-1,1.1-2.5,2.5-5.6,2.5
					c-2.6,0-5.2-1.5-5.2-5c0-3.4,2.1-5.1,5-5.5l4.1-0.6c0.7-0.1,1.6-0.4,1.6-1.4c0-1.9-1.8-2-3-2c-2.3,0-2.7,1.4-2.8,2.4h-4.4
					c0.5-5.3,4.2-6,7.7-6c2.4,0,6.9,0.7,6.9,5V85.9z M351.3,80.9c-0.5,0.4-1.2,0.6-3.1,0.9c-1.7,0.3-3.1,0.7-3.1,2.6
					c0,1.6,1.2,2.1,2.1,2.1c2,0,4-1.3,4-3.4V80.9z"/>
				<path class="st4" d="M359.1,72.1h4.3v3h0.1c0.9-1.7,2-3.4,4.7-3.4c0.3,0,0.6,0,0.9,0.1v4.6c-0.4-0.1-0.9-0.1-1.3-0.1
					c-3.5,0-4.2,2.2-4.2,4.1v9h-4.5V72.1z"/>
				<path class="st4" d="M378.1,89.7c-4.6,0-8.8-2.8-8.8-9.1c0-6.2,4.2-9.1,8.8-9.1c4.6,0,8.8,2.8,8.8,9.1
					C386.9,86.9,382.8,89.7,378.1,89.7z M378.1,75.4c-3.5,0-4.1,3-4.1,5.2c0,2.2,0.6,5.2,4.1,5.2c3.5,0,4.1-3,4.1-5.2
					C382.3,78.5,381.6,75.4,378.1,75.4z"/>
				<path class="st4" d="M405.1,89.3h-4.4v-2.2h-0.1c-1.1,1.9-3.1,2.6-5,2.6c-5.1,0-7.2-4.5-7.2-9.3c0-6,3.4-8.9,7.2-8.9
					c2.9,0,4.3,1.6,5,2.7h0.1V66h4.5V89.3z M396.8,86c2.9,0,4-2.4,4-4.9c0-2.8-0.8-5.5-3.9-5.5c-2.9,0-3.9,2.6-3.9,5.3
					C393,82.8,393.9,86,396.8,86z"/>
				<path class="st4" d="M413.1,70h-4.5v-4.2h4.5V70z M413.1,72.1v17.2h-4.5V72.1H413.1z"/>
				<path class="st4" d="M430.7,85.9c0,2,0.5,2.5,1,2.7v0.7h-4.9c-0.3-0.8-0.3-1.1-0.4-2c-1,1.1-2.5,2.5-5.6,2.5
					c-2.6,0-5.2-1.5-5.2-5c0-3.4,2.1-5.1,5-5.5l4.1-0.6c0.7-0.1,1.6-0.4,1.6-1.4c0-1.9-1.8-2-3-2c-2.3,0-2.7,1.4-2.8,2.4h-4.4
					c0.5-5.3,4.2-6,7.7-6c2.4,0,6.9,0.7,6.9,5V85.9z M426.2,80.9c-0.5,0.4-1.2,0.6-3.1,0.9c-1.7,0.3-3.1,0.7-3.1,2.6
					c0,1.6,1.2,2.1,2.1,2.1c2,0,4-1.3,4-3.4V80.9z"/>
			</g>
			<g>
				<g>
					<path class="st4" d="M323.3,113.7h-4.9V90.5h4.9V113.7z"/>
					<path class="st4" d="M341.9,113.7h-4.5v-10.5c0-1.3-0.1-3.4-2.9-3.4c-2,0-3.6,1.4-3.6,4v9.9h-4.5V96.5h4.3V99h0.1
						c0.6-1,1.9-3,5.2-3c3.4,0,6,2,6,5.8V113.7z"/>
					<path class="st4" d="M350,96.5h2.8v3.2H350v9.3c0,1,0,1.4,1.9,1.4c0.3,0,0.6,0,0.9-0.1v3.4c-0.7,0-1.4,0.1-2.1,0.1h-0.6
						c-3.9,0-4.6-1.5-4.6-3.7V99.7h-2.3v-3.2h2.3v-4.7h4.5V96.5z"/>
					<path class="st4" d="M369.4,108.6c-1.2,4.1-4.6,5.5-7.6,5.5c-4.9,0-8.6-2.3-8.6-9.4c0-2.1,0.7-8.7,8.2-8.7
						c3.4,0,8.1,1.6,8.1,9.5v0.8h-11.8c0.1,1.3,0.4,4.2,4,4.2c1.3,0,2.6-0.6,2.9-1.9H369.4z M364.9,103.4c-0.3-2.8-2-3.6-3.5-3.6
						c-2.1,0-3.3,1.4-3.5,3.6H364.9z"/>
					<path class="st4" d="M371.4,96.5h4.3v3h0.1c0.9-1.7,2-3.4,4.7-3.4c0.3,0,0.6,0,0.9,0.1v4.6c-0.4-0.1-0.9-0.1-1.3-0.1
						c-3.5,0-4.2,2.2-4.2,4.1v9h-4.5V96.5z"/>
					<path class="st4" d="M398.4,113.7h-4.5v-10.5c0-1.3-0.1-3.4-2.9-3.4c-2,0-3.6,1.4-3.6,4v9.9h-4.5V96.5h4.3V99h0.1
						c0.6-1,1.9-3,5.2-3c3.4,0,6,2,6,5.8V113.7z"/>
					<path class="st4" d="M415.4,110.3c0,2,0.5,2.5,1,2.7v0.7h-4.9c-0.3-0.8-0.3-1.1-0.4-2c-1,1.1-2.5,2.5-5.6,2.5
						c-2.6,0-5.2-1.5-5.2-5c0-3.4,2.1-5.1,5-5.5l4.1-0.6c0.7-0.1,1.6-0.4,1.6-1.4c0-1.9-1.8-2-3-2c-2.3,0-2.7,1.4-2.8,2.4h-4.4
						c0.5-5.3,4.2-6,7.7-6c2.4,0,6.9,0.7,6.9,5V110.3z M410.9,105.3c-0.5,0.4-1.2,0.6-3.1,0.9c-1.7,0.3-3.1,0.7-3.1,2.6
						c0,1.6,1.2,2.1,2.1,2.1c2,0,4-1.3,4-3.4V105.3z"/>
					<path class="st4" d="M423.3,96.5h2.8v3.2h-2.8v9.3c0,1,0,1.4,1.9,1.4c0.3,0,0.6,0,0.9-0.1v3.4c-0.7,0-1.4,0.1-2.1,0.1h-0.6
						c-3.9,0-4.6-1.5-4.6-3.7V99.7h-2.3v-3.2h2.3v-4.7h4.5V96.5z"/>
					<path class="st4" d="M432.5,94.4H428v-4.2h4.5V94.4z M432.5,96.5v17.2H428V96.5H432.5z"/>
					<path class="st4" d="M443.5,114.1c-4.6,0-8.8-2.8-8.8-9.1c0-6.2,4.2-9.1,8.8-9.1c4.6,0,8.8,2.8,8.8,9.1
						C452.3,111.3,448.1,114.1,443.5,114.1z M443.5,99.8c-3.5,0-4.1,3-4.1,5.2c0,2.2,0.6,5.2,4.1,5.2c3.5,0,4.1-3,4.1-5.2
						C447.6,102.9,447,99.8,443.5,99.8z"/>
					<path class="st4" d="M469.9,113.7h-4.5v-10.5c0-1.3-0.1-3.4-2.9-3.4c-2,0-3.6,1.4-3.6,4v9.9h-4.5V96.5h4.3V99h0.1
						c0.6-1,1.9-3,5.2-3c3.4,0,6,2,6,5.8V113.7z"/>
					<path class="st4" d="M486.8,110.3c0,2,0.5,2.5,1,2.7v0.7H483c-0.3-0.8-0.3-1.1-0.4-2c-1,1.1-2.5,2.5-5.6,2.5
						c-2.6,0-5.2-1.5-5.2-5c0-3.4,2.1-5.1,5-5.5l4.1-0.6c0.7-0.1,1.6-0.4,1.6-1.4c0-1.9-1.8-2-3-2c-2.3,0-2.7,1.4-2.8,2.4h-4.4
						c0.5-5.3,4.2-6,7.7-6c2.4,0,6.9,0.7,6.9,5V110.3z M482.4,105.3c-0.5,0.4-1.2,0.6-3.1,0.9c-1.7,0.3-3.1,0.7-3.1,2.6
						c0,1.6,1.2,2.1,2.1,2.1c2,0,4-1.3,4-3.4V105.3z"/>
					<path class="st4" d="M494.4,113.7h-4.5V90.5h4.5V113.7z"/>
				</g>
			</g>
			<g>
				<path class="st4" d="M326.1,120.7c-0.2-0.3-0.4-0.6-0.7-0.8c-0.3-0.2-0.6-0.4-0.9-0.5c-0.3-0.1-0.7-0.2-1-0.2
					c-0.7,0-1.2,0.1-1.7,0.4c-0.5,0.3-0.9,0.6-1.2,1s-0.5,0.9-0.7,1.4c-0.1,0.5-0.2,1.1-0.2,1.6c0,0.5,0.1,1.1,0.2,1.6
					c0.1,0.5,0.4,1,0.7,1.4c0.3,0.4,0.7,0.8,1.2,1c0.5,0.3,1,0.4,1.7,0.4c0.5,0,0.9-0.1,1.3-0.3c0.4-0.2,0.7-0.4,1-0.7
					c0.3-0.3,0.5-0.6,0.7-1c0.2-0.4,0.3-0.8,0.3-1.3h1c-0.1,0.6-0.2,1.2-0.4,1.7c-0.2,0.5-0.5,0.9-0.9,1.3c-0.4,0.3-0.8,0.6-1.3,0.8
					c-0.5,0.2-1,0.3-1.6,0.3c-0.8,0-1.5-0.1-2.1-0.4c-0.6-0.3-1.1-0.7-1.5-1.1c-0.4-0.5-0.7-1-0.9-1.7c-0.2-0.6-0.3-1.3-0.3-2
					c0-0.7,0.1-1.4,0.3-2c0.2-0.6,0.5-1.2,0.9-1.7c0.4-0.5,0.9-0.9,1.5-1.2s1.3-0.4,2.1-0.4c0.5,0,0.9,0.1,1.4,0.2
					c0.5,0.1,0.9,0.3,1.2,0.6c0.4,0.3,0.7,0.6,0.9,1s0.4,0.9,0.5,1.4h-1C326.4,121.4,326.3,121,326.1,120.7z"/>
				<path class="st4" d="M329.4,126.4c0.1,0.3,0.2,0.6,0.4,0.9c0.2,0.3,0.4,0.5,0.7,0.7c0.3,0.2,0.7,0.3,1.1,0.3
					c0.6,0,1.1-0.2,1.5-0.5s0.6-0.8,0.8-1.3h0.9c-0.2,0.8-0.5,1.5-1,1.9c-0.5,0.4-1.2,0.7-2.1,0.7c-0.6,0-1.1-0.1-1.5-0.3
					c-0.4-0.2-0.8-0.5-1-0.8c-0.3-0.4-0.5-0.8-0.6-1.2c-0.1-0.5-0.2-1-0.2-1.5c0-0.5,0.1-0.9,0.2-1.4c0.1-0.5,0.3-0.9,0.6-1.2
					c0.3-0.4,0.6-0.7,1-0.9c0.4-0.2,0.9-0.3,1.5-0.3c0.6,0,1.1,0.1,1.5,0.4c0.4,0.2,0.7,0.5,1,0.9c0.3,0.4,0.4,0.8,0.6,1.3
					c0.1,0.5,0.2,1,0.1,1.5h-5.6C329.2,125.7,329.3,126,329.4,126.4z M333.7,123.7c-0.1-0.3-0.3-0.6-0.5-0.8
					c-0.2-0.2-0.4-0.4-0.7-0.6c-0.3-0.1-0.6-0.2-1-0.2c-0.4,0-0.7,0.1-1,0.2c-0.3,0.1-0.5,0.3-0.7,0.6c-0.2,0.2-0.4,0.5-0.5,0.8
					c-0.1,0.3-0.2,0.6-0.2,1h4.7C333.9,124.3,333.8,124,333.7,123.7z"/>
				<path class="st4" d="M336.7,121.5v1.2h0c0.2-0.4,0.5-0.8,0.9-1.1c0.4-0.3,0.9-0.4,1.4-0.4c0.5,0,0.9,0.1,1.3,0.2
					c0.3,0.1,0.6,0.3,0.8,0.6c0.2,0.2,0.4,0.5,0.4,0.9c0.1,0.3,0.1,0.7,0.1,1.2v4.7h-0.9v-4.5c0-0.3,0-0.6-0.1-0.9
					c-0.1-0.3-0.2-0.5-0.3-0.7c-0.1-0.2-0.3-0.4-0.6-0.5c-0.2-0.1-0.5-0.2-0.9-0.2c-0.4,0-0.7,0.1-0.9,0.2c-0.3,0.1-0.5,0.3-0.7,0.5
					c-0.2,0.2-0.3,0.5-0.4,0.8c-0.1,0.3-0.2,0.6-0.2,1v4.2h-0.9v-7.2H336.7z"/>
				<path class="st4" d="M346,121.5v0.7h-1.5v4.9c0,0.3,0,0.5,0.1,0.7c0.1,0.2,0.3,0.3,0.6,0.3c0.3,0,0.5,0,0.8,0v0.7
					c-0.1,0-0.3,0-0.4,0c-0.1,0-0.3,0-0.4,0c-0.6,0-1-0.1-1.2-0.3c-0.2-0.2-0.3-0.7-0.3-1.3v-5h-1.3v-0.7h1.3v-2.2h0.9v2.2H346z"/>
				<path class="st4" d="M347.9,121.5v1.7h0c0.2-0.6,0.6-1,1-1.4c0.5-0.3,1-0.5,1.7-0.4v0.9c-0.4,0-0.8,0-1.1,0.2
					c-0.3,0.1-0.6,0.3-0.8,0.5c-0.2,0.2-0.4,0.5-0.6,0.8c-0.1,0.3-0.2,0.7-0.2,1.1v3.9h-0.9v-7.2H347.9z"/>
				<path class="st4" d="M351.8,126.4c0.1,0.3,0.2,0.6,0.4,0.9c0.2,0.3,0.4,0.5,0.7,0.7c0.3,0.2,0.7,0.3,1.1,0.3
					c0.6,0,1.2-0.2,1.5-0.5c0.4-0.3,0.6-0.8,0.8-1.3h0.9c-0.2,0.8-0.5,1.5-1,1.9c-0.5,0.4-1.2,0.7-2.1,0.7c-0.6,0-1.1-0.1-1.5-0.3
					c-0.4-0.2-0.8-0.5-1-0.8c-0.3-0.4-0.5-0.8-0.6-1.2c-0.1-0.5-0.2-1-0.2-1.5c0-0.5,0.1-0.9,0.2-1.4c0.1-0.5,0.3-0.9,0.6-1.2
					c0.3-0.4,0.6-0.7,1-0.9c0.4-0.2,0.9-0.3,1.5-0.3c0.6,0,1.1,0.1,1.5,0.4c0.4,0.2,0.7,0.5,1,0.9c0.3,0.4,0.4,0.8,0.6,1.3
					c0.1,0.5,0.2,1,0.1,1.5h-5.6C351.6,125.7,351.7,126,351.8,126.4z M356.1,123.7c-0.1-0.3-0.3-0.6-0.5-0.8
					c-0.2-0.2-0.4-0.4-0.7-0.6c-0.3-0.1-0.6-0.2-1-0.2c-0.4,0-0.7,0.1-1,0.2c-0.3,0.1-0.5,0.3-0.7,0.6c-0.2,0.2-0.4,0.5-0.5,0.8
					c-0.1,0.3-0.2,0.6-0.2,1h4.7C356.3,124.3,356.2,124,356.1,123.7z"/>
				<path class="st4" d="M363.3,122.2v6.5h-0.9v-6.5h-1.2v-0.7h1.2v-0.7c0-0.3,0-0.6,0.1-0.9c0-0.3,0.1-0.5,0.3-0.7
					c0.1-0.2,0.3-0.3,0.5-0.4c0.2-0.1,0.5-0.2,0.9-0.2c0.1,0,0.3,0,0.4,0c0.1,0,0.2,0,0.4,0v0.8c-0.1,0-0.2,0-0.3,0
					c-0.1,0-0.2,0-0.3,0c-0.2,0-0.4,0-0.6,0.1c-0.1,0.1-0.2,0.2-0.3,0.3c-0.1,0.1-0.1,0.3-0.1,0.4c0,0.2,0,0.4,0,0.5v0.6h1.4v0.7
					H363.3z"/>
				<path class="st4" d="M369.9,121.6c0.4,0.2,0.8,0.5,1.1,0.8c0.3,0.3,0.5,0.8,0.7,1.2c0.1,0.5,0.2,1,0.2,1.5c0,0.5-0.1,1-0.2,1.5
					c-0.1,0.5-0.4,0.9-0.7,1.2s-0.6,0.6-1.1,0.8c-0.4,0.2-0.9,0.3-1.5,0.3c-0.6,0-1-0.1-1.5-0.3c-0.4-0.2-0.8-0.5-1.1-0.8
					c-0.3-0.3-0.5-0.8-0.7-1.2c-0.1-0.5-0.2-1-0.2-1.5c0-0.5,0.1-1,0.2-1.5c0.1-0.5,0.4-0.9,0.7-1.2c0.3-0.3,0.6-0.6,1.1-0.8
					c0.4-0.2,0.9-0.3,1.5-0.3C369,121.3,369.5,121.4,369.9,121.6z M367.3,122.3c-0.3,0.2-0.6,0.4-0.8,0.7c-0.2,0.3-0.4,0.6-0.5,1
					c-0.1,0.4-0.2,0.7-0.2,1.1c0,0.4,0.1,0.8,0.2,1.1s0.3,0.7,0.5,1c0.2,0.3,0.5,0.5,0.8,0.7c0.3,0.2,0.7,0.3,1.1,0.3
					c0.4,0,0.8-0.1,1.1-0.3c0.3-0.2,0.6-0.4,0.8-0.7c0.2-0.3,0.4-0.6,0.5-1c0.1-0.4,0.2-0.7,0.2-1.1c0-0.4-0.1-0.8-0.2-1.1
					c-0.1-0.4-0.3-0.7-0.5-1c-0.2-0.3-0.5-0.5-0.8-0.7c-0.3-0.2-0.7-0.3-1.1-0.3C368,122,367.6,122.1,367.3,122.3z"/>
				<path class="st4" d="M373.8,121.5v1.7h0c0.2-0.6,0.6-1,1-1.4c0.5-0.3,1-0.5,1.7-0.4v0.9c-0.4,0-0.8,0-1.1,0.2
					c-0.3,0.1-0.6,0.3-0.8,0.5c-0.2,0.2-0.4,0.5-0.6,0.8s-0.2,0.7-0.2,1.1v3.9H373v-7.2H373.8z"/>
				<path class="st4" d="M382.1,118.7v9.2h5.6v0.8h-6.6v-10H382.1z"/>
				<path class="st4" d="M388.9,126.4c0.1,0.3,0.2,0.6,0.4,0.9c0.2,0.3,0.4,0.5,0.7,0.7c0.3,0.2,0.7,0.3,1.1,0.3
					c0.6,0,1.2-0.2,1.5-0.5c0.4-0.3,0.6-0.8,0.8-1.3h0.9c-0.2,0.8-0.5,1.5-1,1.9c-0.5,0.4-1.2,0.7-2.1,0.7c-0.6,0-1.1-0.1-1.5-0.3
					c-0.4-0.2-0.8-0.5-1-0.8c-0.3-0.4-0.5-0.8-0.6-1.2c-0.1-0.5-0.2-1-0.2-1.5c0-0.5,0.1-0.9,0.2-1.4c0.1-0.5,0.3-0.9,0.6-1.2
					c0.3-0.4,0.6-0.7,1-0.9c0.4-0.2,0.9-0.3,1.5-0.3c0.6,0,1.1,0.1,1.5,0.4c0.4,0.2,0.7,0.5,1,0.9c0.3,0.4,0.4,0.8,0.6,1.3
					c0.1,0.5,0.2,1,0.1,1.5h-5.6C388.8,125.7,388.8,126,388.9,126.4z M393.3,123.7c-0.1-0.3-0.3-0.6-0.5-0.8
					c-0.2-0.2-0.4-0.4-0.7-0.6c-0.3-0.1-0.6-0.2-1-0.2c-0.4,0-0.7,0.1-1,0.2c-0.3,0.1-0.5,0.3-0.7,0.6c-0.2,0.2-0.4,0.5-0.5,0.8
					c-0.1,0.3-0.2,0.6-0.2,1h4.7C393.5,124.3,393.4,124,393.3,123.7z"/>
				<path class="st4" d="M395.6,122.6c0.1-0.3,0.4-0.6,0.6-0.8c0.3-0.2,0.6-0.3,0.9-0.4c0.3-0.1,0.7-0.1,1.2-0.1c0.3,0,0.6,0,1,0.1
					c0.3,0.1,0.6,0.2,0.9,0.3c0.3,0.2,0.5,0.4,0.6,0.7c0.2,0.3,0.2,0.7,0.2,1.2v3.8c0,0.4,0.2,0.5,0.5,0.5c0.1,0,0.2,0,0.3-0.1v0.7
					c-0.1,0-0.2,0-0.3,0c-0.1,0-0.2,0-0.3,0c-0.2,0-0.4,0-0.5-0.1s-0.2-0.1-0.3-0.3c-0.1-0.1-0.1-0.2-0.1-0.4c0-0.2,0-0.3,0-0.5h0
					c-0.2,0.2-0.3,0.4-0.5,0.6c-0.2,0.2-0.3,0.3-0.5,0.5c-0.2,0.1-0.4,0.2-0.7,0.3c-0.3,0.1-0.6,0.1-0.9,0.1c-0.3,0-0.7,0-0.9-0.1
					s-0.6-0.2-0.8-0.4c-0.2-0.2-0.4-0.4-0.5-0.7c-0.1-0.3-0.2-0.6-0.2-0.9c0-0.5,0.1-0.9,0.3-1.2c0.2-0.3,0.5-0.5,0.9-0.7
					c0.4-0.1,0.8-0.3,1.2-0.3c0.5-0.1,0.9-0.1,1.4-0.2c0.2,0,0.4,0,0.5-0.1c0.1,0,0.3-0.1,0.4-0.1s0.2-0.2,0.2-0.3
					c0.1-0.1,0.1-0.3,0.1-0.5c0-0.3,0-0.5-0.1-0.7c-0.1-0.2-0.2-0.3-0.4-0.5c-0.2-0.1-0.4-0.2-0.6-0.2c-0.2,0-0.5-0.1-0.7-0.1
					c-0.6,0-1,0.1-1.4,0.4c-0.4,0.3-0.5,0.7-0.6,1.3h-0.9C395.3,123.3,395.4,122.9,395.6,122.6z M400,124.8
					c-0.1,0.1-0.2,0.2-0.3,0.2c-0.2,0-0.3,0.1-0.4,0.1c-0.4,0.1-0.8,0.1-1.2,0.2c-0.4,0.1-0.8,0.1-1.1,0.2c-0.3,0.1-0.6,0.3-0.8,0.4
					c-0.2,0.2-0.3,0.5-0.3,0.8c0,0.2,0,0.4,0.1,0.6s0.2,0.3,0.4,0.4c0.1,0.1,0.3,0.2,0.5,0.3c0.2,0.1,0.4,0.1,0.6,0.1
					c0.3,0,0.7-0.1,1-0.2c0.3-0.1,0.6-0.3,0.8-0.4c0.2-0.2,0.4-0.4,0.5-0.7c0.1-0.3,0.2-0.6,0.2-1L400,124.8L400,124.8z"/>
				<path class="st4" d="M403.3,121.5v1.7h0c0.2-0.6,0.6-1,1-1.4c0.5-0.3,1-0.5,1.7-0.4v0.9c-0.4,0-0.8,0-1.1,0.2
					c-0.3,0.1-0.6,0.3-0.8,0.5c-0.2,0.2-0.4,0.5-0.6,0.8c-0.1,0.3-0.2,0.7-0.2,1.1v3.9h-0.9v-7.2H403.3z"/>
				<path class="st4" d="M407.8,121.5v1.2h0c0.2-0.4,0.5-0.8,0.9-1.1c0.4-0.3,0.9-0.4,1.4-0.4c0.5,0,0.9,0.1,1.3,0.2
					c0.3,0.1,0.6,0.3,0.8,0.6c0.2,0.2,0.4,0.5,0.4,0.9c0.1,0.3,0.1,0.7,0.1,1.2v4.7h-0.9v-4.5c0-0.3,0-0.6-0.1-0.9
					c-0.1-0.3-0.2-0.5-0.3-0.7c-0.1-0.2-0.3-0.4-0.6-0.5c-0.2-0.1-0.5-0.2-0.9-0.2c-0.4,0-0.7,0.1-0.9,0.2c-0.3,0.1-0.5,0.3-0.7,0.5
					c-0.2,0.2-0.3,0.5-0.4,0.8c-0.1,0.3-0.2,0.6-0.2,1v4.2h-0.9v-7.2H407.8z"/>
				<path class="st4" d="M415.2,118.7v1.4h-0.9v-1.4H415.2z M415.2,121.5v7.2h-0.9v-7.2H415.2z"/>
				<path class="st4" d="M417.6,121.5v1.2h0c0.2-0.4,0.5-0.8,0.9-1.1c0.4-0.3,0.9-0.4,1.4-0.4c0.5,0,0.9,0.1,1.3,0.2
					c0.3,0.1,0.6,0.3,0.8,0.6c0.2,0.2,0.4,0.5,0.4,0.9c0.1,0.3,0.1,0.7,0.1,1.2v4.7h-0.9v-4.5c0-0.3,0-0.6-0.1-0.9
					c-0.1-0.3-0.2-0.5-0.3-0.7c-0.1-0.2-0.3-0.4-0.6-0.5c-0.2-0.1-0.5-0.2-0.9-0.2c-0.4,0-0.7,0.1-0.9,0.2c-0.3,0.1-0.5,0.3-0.7,0.5
					c-0.2,0.2-0.3,0.5-0.4,0.8c-0.1,0.3-0.2,0.6-0.2,1v4.2h-0.9v-7.2H417.6z"/>
				<path class="st4" d="M430,129.6c-0.1,0.4-0.3,0.8-0.6,1.1c-0.3,0.3-0.6,0.5-1,0.7c-0.4,0.2-0.9,0.2-1.5,0.2
					c-0.4,0-0.7,0-1.1-0.1c-0.3-0.1-0.7-0.2-0.9-0.4c-0.3-0.2-0.5-0.4-0.7-0.7c-0.2-0.3-0.3-0.6-0.3-1h0.9c0,0.3,0.1,0.5,0.3,0.7
					c0.1,0.2,0.3,0.3,0.5,0.4c0.2,0.1,0.4,0.2,0.6,0.2c0.2,0.1,0.5,0.1,0.7,0.1c0.8,0,1.4-0.2,1.8-0.7s0.5-1.1,0.5-2v-1h0
					c-0.2,0.4-0.5,0.8-0.9,1.1c-0.4,0.3-0.9,0.4-1.4,0.4c-0.6,0-1.1-0.1-1.5-0.3c-0.4-0.2-0.8-0.5-1-0.8c-0.3-0.3-0.5-0.7-0.6-1.2
					c-0.1-0.5-0.2-0.9-0.2-1.5c0-0.5,0.1-1,0.2-1.4c0.1-0.4,0.4-0.8,0.6-1.2c0.3-0.3,0.6-0.6,1-0.8c0.4-0.2,0.9-0.3,1.4-0.3
					c0.3,0,0.5,0,0.8,0.1c0.2,0.1,0.5,0.2,0.7,0.3c0.2,0.1,0.4,0.3,0.5,0.5c0.2,0.2,0.3,0.4,0.4,0.6h0v-1.2h0.9v6.6
					C430.2,128.7,430.1,129.2,430,129.6z M428,127.7c0.3-0.2,0.5-0.4,0.7-0.6c0.2-0.3,0.3-0.6,0.4-0.9c0.1-0.3,0.1-0.7,0.1-1.1
					c0-0.4,0-0.7-0.1-1.1c-0.1-0.4-0.2-0.7-0.4-1c-0.2-0.3-0.4-0.5-0.7-0.7c-0.3-0.2-0.7-0.3-1.1-0.3c-0.4,0-0.8,0.1-1.1,0.3
					c-0.3,0.2-0.5,0.4-0.7,0.7c-0.2,0.3-0.3,0.6-0.4,1c-0.1,0.4-0.1,0.7-0.1,1.1c0,0.4,0,0.7,0.1,1.1c0.1,0.3,0.2,0.7,0.4,0.9
					c0.2,0.3,0.4,0.5,0.7,0.6c0.3,0.2,0.7,0.2,1.1,0.2C427.4,127.9,427.7,127.8,428,127.7z"/>
				<path class="st4" d="M436.9,118.7l3.3,8.8l3.5-8.8h1.4v10h-1v-8.7h0l-3.4,8.7h-0.9l-3.3-8.7h0v8.7h-1v-10H436.9z"/>
				<path class="st4" d="M451.8,128.7v-1.3h0c-0.2,0.5-0.6,0.9-1,1.1c-0.4,0.3-0.9,0.4-1.5,0.4c-0.5,0-0.8-0.1-1.2-0.2
					c-0.3-0.1-0.6-0.3-0.8-0.5c-0.2-0.2-0.3-0.5-0.4-0.9c-0.1-0.3-0.1-0.7-0.1-1.2v-4.7h0.9v4.7c0,0.7,0.2,1.2,0.5,1.5
					c0.3,0.3,0.8,0.5,1.5,0.5c0.4,0,0.7-0.1,1-0.2c0.3-0.2,0.5-0.4,0.7-0.7c0.2-0.3,0.3-0.6,0.4-0.9c0.1-0.4,0.1-0.7,0.1-1.1v-3.8
					h0.9v7.2H451.8z"/>
				<path class="st4" d="M454.9,121.5v1.2h0c0.2-0.4,0.5-0.8,0.9-1.1s0.9-0.4,1.5-0.4c0.5,0,0.9,0.1,1.3,0.4
					c0.4,0.2,0.6,0.6,0.8,1.1c0.2-0.5,0.5-0.8,1-1.1c0.4-0.2,0.9-0.4,1.3-0.4c1.6,0,2.4,0.8,2.4,2.5v4.9h-0.9v-4.9
					c0-0.6-0.1-1.1-0.4-1.4c-0.3-0.3-0.7-0.5-1.3-0.5c-0.4,0-0.7,0.1-1,0.2c-0.3,0.1-0.5,0.3-0.6,0.6c-0.1,0.2-0.3,0.5-0.3,0.8
					c-0.1,0.3-0.1,0.6-0.1,1v4.1h-0.9v-4.9c0-0.2,0-0.5-0.1-0.7c-0.1-0.2-0.1-0.4-0.3-0.6c-0.1-0.2-0.3-0.3-0.5-0.4
					c-0.2-0.1-0.4-0.1-0.7-0.1c-0.4,0-0.7,0.1-1,0.2c-0.3,0.1-0.5,0.3-0.7,0.6c-0.2,0.2-0.3,0.5-0.4,0.8c-0.1,0.3-0.1,0.7-0.1,1.1v4
					h-0.9v-7.2H454.9z"/>
				<path class="st4" d="M466.5,118.7v4.2h0c0.1-0.3,0.2-0.5,0.4-0.7c0.2-0.2,0.4-0.4,0.6-0.5c0.2-0.1,0.5-0.2,0.7-0.3
					c0.3-0.1,0.5-0.1,0.8-0.1c0.6,0,1,0.1,1.4,0.3c0.4,0.2,0.7,0.5,1,0.8s0.5,0.8,0.6,1.2c0.1,0.5,0.2,1,0.2,1.5
					c0,0.5-0.1,1-0.2,1.5c-0.1,0.5-0.3,0.9-0.6,1.2c-0.3,0.4-0.6,0.6-1,0.8c-0.4,0.2-0.9,0.3-1.4,0.3c-0.6,0-1.1-0.1-1.6-0.4
					s-0.8-0.7-1-1.2h0v1.4h-0.8v-10H466.5z M471.2,124c-0.1-0.4-0.2-0.7-0.4-1c-0.2-0.3-0.4-0.5-0.7-0.7c-0.3-0.2-0.7-0.3-1.1-0.3
					c-0.5,0-0.9,0.1-1.2,0.3c-0.3,0.2-0.6,0.4-0.8,0.7c-0.2,0.3-0.3,0.6-0.4,1c-0.1,0.4-0.1,0.7-0.1,1.1c0,0.4,0,0.7,0.1,1.1
					c0.1,0.4,0.2,0.7,0.4,1c0.2,0.3,0.5,0.5,0.8,0.7c0.3,0.2,0.7,0.3,1.2,0.3c0.4,0,0.8-0.1,1.1-0.3c0.3-0.2,0.5-0.4,0.7-0.7
					c0.2-0.3,0.3-0.6,0.4-1c0.1-0.4,0.1-0.7,0.1-1.1C471.4,124.7,471.3,124.4,471.2,124z"/>
				<path class="st4" d="M473.6,122.6c0.1-0.3,0.4-0.6,0.6-0.8c0.3-0.2,0.6-0.3,0.9-0.4c0.3-0.1,0.7-0.1,1.1-0.1c0.3,0,0.6,0,1,0.1
					c0.3,0.1,0.6,0.2,0.9,0.3c0.3,0.2,0.5,0.4,0.6,0.7s0.2,0.7,0.2,1.2v3.8c0,0.4,0.2,0.5,0.5,0.5c0.1,0,0.2,0,0.3-0.1v0.7
					c-0.1,0-0.2,0-0.3,0c-0.1,0-0.2,0-0.3,0c-0.2,0-0.4,0-0.5-0.1c-0.1-0.1-0.2-0.1-0.3-0.3c-0.1-0.1-0.1-0.2-0.1-0.4
					c0-0.2,0-0.3,0-0.5h0c-0.2,0.2-0.3,0.4-0.5,0.6c-0.2,0.2-0.3,0.3-0.5,0.5c-0.2,0.1-0.4,0.2-0.7,0.3c-0.3,0.1-0.6,0.1-0.9,0.1
					c-0.3,0-0.7,0-0.9-0.1c-0.3-0.1-0.6-0.2-0.8-0.4c-0.2-0.2-0.4-0.4-0.5-0.7c-0.1-0.3-0.2-0.6-0.2-0.9c0-0.5,0.1-0.9,0.3-1.2
					c0.2-0.3,0.5-0.5,0.9-0.7c0.4-0.1,0.8-0.3,1.2-0.3c0.5-0.1,0.9-0.1,1.4-0.2c0.2,0,0.4,0,0.5-0.1c0.1,0,0.3-0.1,0.4-0.1
					c0.1-0.1,0.2-0.2,0.2-0.3c0.1-0.1,0.1-0.3,0.1-0.5c0-0.3,0-0.5-0.1-0.7c-0.1-0.2-0.2-0.3-0.4-0.5s-0.4-0.2-0.6-0.2
					c-0.2,0-0.5-0.1-0.7-0.1c-0.6,0-1,0.1-1.4,0.4c-0.4,0.3-0.5,0.7-0.6,1.3h-0.9C473.4,123.3,473.5,122.9,473.6,122.6z M478,124.8
					c-0.1,0.1-0.2,0.2-0.3,0.2c-0.2,0-0.3,0.1-0.4,0.1c-0.4,0.1-0.8,0.1-1.2,0.2c-0.4,0.1-0.8,0.1-1.1,0.2c-0.3,0.1-0.6,0.3-0.8,0.4
					c-0.2,0.2-0.3,0.5-0.3,0.8c0,0.2,0,0.4,0.1,0.6c0.1,0.2,0.2,0.3,0.4,0.4c0.1,0.1,0.3,0.2,0.5,0.3c0.2,0.1,0.4,0.1,0.6,0.1
					c0.3,0,0.7-0.1,1-0.2c0.3-0.1,0.6-0.3,0.8-0.4c0.2-0.2,0.4-0.4,0.5-0.7c0.1-0.3,0.2-0.6,0.2-1L478,124.8L478,124.8z"/>
				<path class="st4" d="M481.4,118.7v1.4h-0.9v-1.4H481.4z M481.4,121.5v7.2h-0.9v-7.2H481.4z"/>
			</g>
		</g>
	</g>
	<g>
		<polygon class="st4" points="506.9,77 448.3,77 448.3,18.4 		"/>
		<polygon class="st5" points="448.3,77 448.3,47.7 418.9,47.7 		"/>
		<polygon class="st6" points="448.3,18.4 469,39.1 489.7,18.4 		"/>
		<polygon class="st7" points="408.6,58.1 418.9,47.7 429.3,58.1 		"/>
	</g>
</g>
</svg>
